<svg xmlns="http://www.w3.org/2000/svg" viewBox="0 0 652 488.31"><defs><style>.cls-1{fill:#2b2c83;}</style></defs><g id="Calque_2" data-name="Calque 2"><g id="Calque_1-2" data-name="Calque 1"><path class="cls-1" d="M107.09,88l12.42,11.09C112,106.37,107.63,110.68,99,120.31L113.3,133c4.68-5.42,8.35-9.53,14.1-16.5l11.9,10.62c-6.27,6.5-10,10.61-14.8,15.87l6,5.39a195.61,195.61,0,0,0,20.37,16.28l-18.28,20.48a193.81,193.81,0,0,0-18.49-18.38L90.52,145.71a195.61,195.61,0,0,0-20.37-16.28Z"/><path class="cls-1" d="M157.36,80.33a197.09,197.09,0,0,0-14.59-21.61l46.88-28.09,8.2,13.68c-6.53,3.5-16.89,9-25.64,14.27l9.89,16.5c8.15-4.89,14.5-9.1,18.21-11.6l7.95,13.28c-3.94,2.09-10.66,5.71-18.81,10.59l10.37,17.3,9.36-5.6A190.18,190.18,0,0,0,226,87.45l8.38,14-48.6,29.11a195.22,195.22,0,0,0-12.17-23.06Z"/><path class="cls-1" d="M270.72,40.82a16.87,16.87,0,0,0,2.93-.29c7-1.27,10.67-4.9,9.49-11.48-1.13-6.23-6.22-9.37-12.92-8.16a18.86,18.86,0,0,0-3,.77Zm8.42-37.27c16.41-2.83,27.73,6.45,30,19.14a24.94,24.94,0,0,1-9.94,24.2C314,67.83,319.31,76.4,323.42,80.66L294,86c-6.93-12.69-13.26-23.35-17.36-30.24l-3.12.57,3.81,21.12a74.81,74.81,0,0,0,2.82,11L253.7,93.22a193.3,193.3,0,0,0-3.23-25.87l-5.61-31.17a194.71,194.71,0,0,0-6-25.37Z"/><path class="cls-1" d="M380.43,4.35C386.83,21,393,37.75,398.74,54.64l.23,0L403.09,36a193.64,193.64,0,0,0,4.25-25.72l19,4.2a196.58,196.58,0,0,0-7,25.11l-6.83,30.92a193.06,193.06,0,0,0-4.25,25.72L389.15,92c-9.63-22.18-14.73-36-18.65-47.12l-.23,0-3.44,15.57a195.22,195.22,0,0,0-4.25,25.73l-19.92-4.41a194.57,194.57,0,0,0,7-25.11l6.84-30.92A195,195,0,0,0,360.74,0Z"/><path class="cls-1" d="M495.77,49.56a195.17,195.17,0,0,0-14.3,21.8L465.55,98.73A193.2,193.2,0,0,0,453.67,122L430,108.15a194.09,194.09,0,0,0,14.31-21.8L460.18,59a195.42,195.42,0,0,0,11.87-23.21Z"/><path class="cls-1" d="M549.47,92.3c-4,17.4-8.29,34.71-13,51.93l.17.17,13.86-13.16a196.1,196.1,0,0,0,17.92-19l13.4,14.12A193.83,193.83,0,0,0,562,143.32l-23,21.79a196.05,196.05,0,0,0-17.92,18.95l-13.48-14.21c4.44-23.77,8-38.11,10.91-49.48l-.16-.17-11.57,11a194.66,194.66,0,0,0-17.91,18.94l-14-14.8a195.09,195.09,0,0,0,19.85-16.9l23-21.8a193.82,193.82,0,0,0,17.91-19Z"/><path class="cls-1" d="M352.56,444.87c1,10.57-4.34,21.88.94,29.68,16.22-2.63,35.79-1.91,49-7.55-13.77-3.13-28.19-5.38-35.33-15.07C365,449,365.3,445.45,362,443a70.37,70.37,0,0,1-9.42,1.89M229.13,426.49c-5.6,7.13-16.22,9.22-20.73,17.44,11.12,13.22,19,29.71,37.69,35.33-2-14.75-15.41-25.7-8.48-43.34-2.26-3.7-5.73-6.21-8.48-9.43M381.3,319.56c-22.66,51.76-44.8,102.16-66.9,152.63-1.25,2.85-5.71,7.82-2.83,10.37,4.68.83,5.5-5.58,6.6-8,24.66-54.5,48.95-110.1,73.49-163.95-5.8-6.48-7.59,2.63-10.36,9m-18.84-8.49c-1.19,1.33-3.59,1.45-5.19,2.36,2.69,10.35,4.3,21.77,7.07,32,5.85-13.77,12.21-27,17.9-41-3.45-5.81-10.57-8-20.73-7.06.22,4.57,2,9.3.95,13.65m-26.39-4.71a99.41,99.41,0,0,1,20.26,0c-.1-3.19-.67-5.93-.94-8.94a134.67,134.67,0,0,1-21.2-1.42c.55,3.53.48,7.68,1.88,10.36m57.95-24c-4.1-.92-8.62,1-12.72.47-5.69-.77-12-3.55-17.9-5.19-6.56-1.81-13.23-4.24-18.38-6.12-7.17,4.77-14.13,9.74-20.72,15.08,13.5,9.05,35.62.58,52.29,5.65,8.73,2.65,11.22,13.91,22.14,12.72,3.56-4.6,7.75-8.58,8.48-16-4.93.34-8.72-5.6-13.19-6.59M342.2,252.66c3.52,4.33,4.37,11.33,8.95,14.61-.33-16.63-4.36-33.66-8-48.53-1.49-1-2.54-2.48-4.24-3.3-.44,13.87,6.74,23.23,3.3,37.22m-8.95-25.45c-.67-4.5.69-9.71-.95-13.65-1.9-4.6-10.2-8.14-12.72-11.78-6.4,1.06-13.36-.19-19.78,1.88S290.64,216,288,223.45c-1.11,3.17-2.92,6.12-3.77,9-1.42,4.74-1.42,10.65-2.83,16-1.29,4.94-4.19,9.59-5.18,13.66-1.65,6.82-.72,13.59-2.82,18.85-1.34,3.33-4,5.67-4.72,8.47-.82,3.18,0,7.82-.47,10.84-.71,4.34-5.42,9.87-2.82,15.08,1.88,2.66,5.12,1.85,8.48,3.29,3,1.3,4.93,4.46,8,5.19,4.09,1,8.13-.06,11.79,1.41,3.24,1.3,5.79,4.59,8.95,5.18,2,.38,4.26-.67,6.12-.47,4.66.5,8.53,4.56,13.66,3.3,4-3.19,1.47-9,2.36-13.66.81-4.36,4.64-7.81,4.71-13.2,0-4.13-2.09-6.83-1.41-11.77-4.13-.75-6.76-3-9.9-4.71-9.06,8.44-16.78-9.41-20.73-17.9s-6.93-19.87-7.54-27.8c-1-13.68,3.78-31,13.2-32.51,8.81-1.46,17.75,6,22.61,10.84,4.38,4.38,6.91,9,10.36,13.66,0-3.47-2.31-5.44-2.82-9m87.15,18.38c1.68-3.77,3.44-8.74,5.65-11.78,3.52-4.84,11-6.2,14.6-10.36,5.12-5.94,5.81-16.3,2.83-21.67-6.09-11-27.65-9.06-33.91,0-2.27,3.27-4.81,9.86-1.89,15.07,5.05-.43,4.32-6.37,6.12-9.42,4.5-7.62,24.58-10.08,25.45,2.35.72,10.49-9.83,11.89-15.08,17-5.52,5.33-8.5,16-12.72,25.44S402.4,271.52,400.14,279c1.32.88,2.3,2.1,4.24,2.36,6-11.39,10.75-24,16-35.81M346,177.28c-.91,3.74-2.82,10.6.93,12.72,1.3-3.94,4.57-7.71,4.25-11.77-1.33-.31-2.86-1.73-5.18-.95M344.08,165c-6.57-1.61-13.09-2.3-18.37-.94-2.73,1.5-2.06,6.11-5.18,7.07-2.49.75-3.54-1.64-6.13-.94-5.51,3.28.44,8.82.48,13.66,0,4.39-2.53,7.63-3.31,11.78,2.21.4,6.34-.55,9,0,1.94.4,4.29,3.4,6.59,4.23,7.41,2.67,17.35-.17,17.16-4.9-.06-1.62-2.53-3.51-4.44-4.05-3.86-1.07-10.28.29-13.23-1.36,1.39-4,9.79-1.92,12.76-4.29,1.09-3.3-.25-9,1.41-11.77,3.74-3.26,8.55-1.21,11.78,0,3.64-5.82-3.09-7.17-8.48-8.49m15.08,10.37c-5.09,11.71-7.2,26.4-20.26,30.15,1.32,4.83,8.7,6.56,10.83,12.24,1.29,3.43,1.07,8.78,2.36,13.67a193.59,193.59,0,0,1,5.65,38.16c12.67,2.35,21.73,9.17,36.75,6.59,4.51-7.95,8.19-17.72,12.25-26.85s7.16-19.12,13.19-25.44c3.42-3.59,15.12-7.11,14.13-13.66-.58-3.86-8.85-6.22-13.66-2.36-5.45,4.37-2.62,12.77-9.9,14.14-13.07,2.45-10-15.72-5.65-22.62,10.6-16.89,44-12.25,45.7,8,1,11.39-4.45,19.19-10.84,23.56-2.38,1.63-6.07,2-8.47,4.71-2.07,2.28-4,7.49-5.66,11.3-5.3,12.11-9.32,22.64-15.55,34.86,8,9.5-2,22.18-7.53,28.27-1.75.31-2.8,1.28-5.19.94-6.88,14.71-14,31.4-21.19,47.59-3.77,8.43-7.05,12-6.6,22.61.75,17.68-.21,41.29-1.41,58,2.38,9.65,10.2,15.9,21.2,18.84,7,1.88,19,1.38,19.79,8,.69,5.56-5.59,8.43-10.84,9.43-14.93,2.83-31.62,3.71-47.58,5.18-8.25-5.9-5.37-22.8-3.78-33.92-2.47-2.4-5.28-4.44-6.12-8.48-5.84,10.68-11.74,25.33-17.9,39.1-1.88,4.21-4.15,10.17-8,10.84-3.7.65-8.59-2-9.43-3.77-2.14-4.5,3.16-13.38,5.18-17.9,5.33-11.86,9.12-21.09,14.61-33.45,2.18-4.91,7.29-12.26,7.54-16.49.25-4.45-3.26-10.55-4.24-14.13-4.06-14.85-5.53-29.89-9.43-44.76-6.31,10.92-10,21.79-17.9,30.62-8.37,9.33-19.6,16.63-29.68,24.5s-19.16,16.83-28.74,25c-3.55,12.37,1.85,18,5.66,27.33,2.46,6,8,19.18-.94,20.73-6.31,1.08-16.06-5.87-19.79-8.95-4.2-3.49-8.94-10.18-13.66-16-3.65-4.52-12.57-11.66-12.72-17-.3-10.29,19.95-14.38,24-22.62,1.39-8.92,8.21-17.86,13.2-25.91,8.27-13.34,17.65-24.48,29.67-33.45,1-12.69,2.18-25.14,5.66-35.33-2.57-3.51-10-3-13.19-7.54-4.79-6.86.41-14,1.41-19.78.24-1.36-.3-4.91,0-7.54.53-4.81,4.39-9.15,6.12-14.6,1.67-5.24.49-11.83,2.36-17.91.82-2.67,2.86-4.92,3.77-7.53,2.41-6.95,2.07-14.07,3.77-20.26.83-3.06,2.69-6.44,3.76-9.42,4.2-11.66,7.24-25.2,22.62-25,1.65-4.26,4.42-8.32,4.24-13.19-.14-3.6-3.55-6.58-2.36-10.84-11.09-16.08,2.55-29.85,17.91-31.56,11.06-1.24,25.14,1.3,31.56,6.59,3.27,2.7,6,6.73,9.42,9.9,4.21,3.88,7.52,7.57,7.07,11.78-.6,5.57-6.8,7.82-13.19,5.65"/><path class="cls-1" d="M336.86,171c.94,1.53.71,4.47.15,4.43-3.57-1.73-7.69-1.84-12.24-1.89-.24-6.5,9.82-6.08,12.09-2.54"/><path class="cls-1" d="M341.48,195c-5,6.2-9.52,2.12-9.87-1.12,1.79-1.41,9.9.3,9.87,1.12"/><polygon class="cls-1" points="0 235.98 0 258.86 5.47 258.86 5.47 250.49 14.24 250.49 14.24 245.16 5.47 245.16 5.47 241.57 14.35 241.57 14.35 235.98 0 235.98"/><path class="cls-1" d="M23.27,245.31H26.8a1.57,1.57,0,0,0,1.28-.51,2,2,0,0,0,.42-1.34,2.1,2.1,0,0,0-.42-1.36,1.55,1.55,0,0,0-1.28-.53H23.27ZM27.72,236a6.54,6.54,0,0,1,2.8.56,5.62,5.62,0,0,1,2,1.48,5.94,5.94,0,0,1,1.15,2.15,8.73,8.73,0,0,1,.37,2.57,8.21,8.21,0,0,1-.7,3.4,5.19,5.19,0,0,1-2.2,2.43l4.55,10.29h-6.1l-3.74-9.45H23.27v9.45H17.79V236Z"/><path class="cls-1" d="M48.06,241.28a5.18,5.18,0,0,0-2.12.42,4.47,4.47,0,0,0-1.65,1.21,5.44,5.44,0,0,0-1.06,1.91,8.06,8.06,0,0,0-.38,2.56,8.28,8.28,0,0,0,.38,2.58,5.54,5.54,0,0,0,1.06,1.95A4.83,4.83,0,0,0,46,253.14a5.54,5.54,0,0,0,4.23,0A4.42,4.42,0,0,0,51.83,252,5.71,5.71,0,0,0,52.9,250a8,8,0,0,0,.39-2.6,7.94,7.94,0,0,0-.39-2.6,5.62,5.62,0,0,0-1.07-1.93,4.47,4.47,0,0,0-1.65-1.21,5.24,5.24,0,0,0-2.12-.42m0-5.6a10.2,10.2,0,0,1,4.59,1A10.37,10.37,0,0,1,56,239.3a11.47,11.47,0,0,1,2.08,3.77,13.93,13.93,0,0,1,0,8.72A11.37,11.37,0,0,1,56,255.54a10.37,10.37,0,0,1-15.91,0,11.52,11.52,0,0,1-2-3.77,13.91,13.91,0,0,1-.69-4.33,14.07,14.07,0,0,1,.7-4.37,11.33,11.33,0,0,1,2.07-3.75A10,10,0,0,1,48,235.68"/><polygon class="cls-1" points="62.71 235.68 73.24 250.16 83.83 235.68 84.24 235.68 84.24 258.86 79.07 258.86 79.07 251.27 73.33 259.16 72.94 259.16 67.53 251.47 67.53 258.86 62.35 258.86 62.35 235.68 62.71 235.68"/><path class="cls-1" d="M97.16,247.26l-2,4.78h3.92Zm.3-11.58,10.35,23.18h-6l-1.2-2.93H93.57l-1.19,2.93H86.7L97,235.68Z"/><path class="cls-1" d="M130.27,245.4a5.54,5.54,0,0,1,.22,1.08,13.1,13.1,0,0,1,.08,1.53,13.89,13.89,0,0,1-.79,4.87,9.82,9.82,0,0,1-2.17,3.48,9,9,0,0,1-3.22,2.1,10.84,10.84,0,0,1-3.93.7,11.06,11.06,0,0,1-4.37-.85,10.18,10.18,0,0,1-3.47-2.43,11.27,11.27,0,0,1-2.28-3.76,14,14,0,0,1-.82-4.92,12.65,12.65,0,0,1,.94-5.1,10,10,0,0,1,6.13-5.71,13.37,13.37,0,0,1,8.77.06,12.26,12.26,0,0,1,3.62,2l-2.9,4.76a6.39,6.39,0,0,0-2.25-1.44,8.15,8.15,0,0,0-2.86-.5,6.38,6.38,0,0,0-2.51.46,5.21,5.21,0,0,0-1.87,1.29,5.55,5.55,0,0,0-1.17,1.95,7.48,7.48,0,0,0-.4,2.52,7.72,7.72,0,0,0,.36,2.39,5.43,5.43,0,0,0,1.07,1.93,5,5,0,0,0,1.77,1.28,5.9,5.9,0,0,0,2.42.47,5.28,5.28,0,0,0,3.24-.95,4.17,4.17,0,0,0,1.63-2.67h-4.33V245.4Z"/><polygon class="cls-1" points="149.02 235.98 149.02 241.57 139.54 241.57 139.54 244.45 148.9 244.45 148.9 249.8 139.54 249.8 139.54 253.27 149.11 253.27 149.11 258.86 134.07 258.86 134.07 235.98 149.02 235.98"/><path class="cls-1" d="M166.84,242.83a13.13,13.13,0,0,0-1.55-.72c-.56-.21-1.13-.41-1.71-.58a13.4,13.4,0,0,0-1.7-.39,10,10,0,0,0-1.58-.13c-1.74,0-2.61.55-2.61,1.64a1.28,1.28,0,0,0,.47,1.06,5.2,5.2,0,0,0,1.24.71l.94.36c.49.18,1,.39,1.67.64s1.26.51,1.9.79,1.18.54,1.62.78a6.78,6.78,0,0,1,2.51,2.15,5.61,5.61,0,0,1,.81,3.14,6.38,6.38,0,0,1-2.11,5,8.88,8.88,0,0,1-6.09,1.87c-.53,0-1.16,0-1.88-.09a16.77,16.77,0,0,1-2.23-.34,20.61,20.61,0,0,1-2.31-.66,11,11,0,0,1-2.19-1l1.14-5a10.5,10.5,0,0,0,1.79.79,16.38,16.38,0,0,0,2,.57c.65.15,1.29.27,1.91.35a13.06,13.06,0,0,0,1.65.12,3.79,3.79,0,0,0,2.16-.48,1.51,1.51,0,0,0,.68-1.29,1.42,1.42,0,0,0-.44-1.09,4,4,0,0,0-1.3-.73l-.91-.32c-.43-.15-.91-.33-1.45-.54s-1.1-.43-1.68-.67-1.09-.48-1.55-.71a7.92,7.92,0,0,1-2.77-2.23,5.59,5.59,0,0,1-1-3.46,6.55,6.55,0,0,1,.58-2.84,5.78,5.78,0,0,1,1.66-2.08,7.39,7.39,0,0,1,2.59-1.28,12.15,12.15,0,0,1,3.36-.44,14.75,14.75,0,0,1,7.6,2.1Z"/><path class="cls-1" d="M73.4,282.44l-2,4.79h3.92Zm.3-11.57L84.05,294h-6l-1.2-2.93H69.82L68.62,294H62.94l10.31-23.17Z"/><path class="cls-1" d="M91.77,271.17v14.44a3.42,3.42,0,0,0,.7,2.38,3.16,3.16,0,0,0,2.41.76,3.34,3.34,0,0,0,2.39-.75,3.17,3.17,0,0,0,.78-2.39V271.17h5.32v14.38c0,3-.74,5.21-2.21,6.64a8.71,8.71,0,0,1-6.34,2.15c-2.93,0-5.09-.75-6.46-2.25s-2.07-3.68-2.07-6.51V271.17Z"/><polygon class="cls-1" points="22.21 306.35 22.21 323.63 30.4 323.63 30.4 329.23 16.73 329.23 16.73 306.35 22.21 306.35"/><path class="cls-1" d="M41.94,317.62l-2,4.79h3.92Zm.3-11.57,10.35,23.18h-6l-1.2-2.93H38.36l-1.2,2.93H31.48L41.8,306.05Z"/><rect class="cls-1" x="55.07" y="306.35" width="5.47" height="22.88"/><polygon class="cls-1" points="80.25 306.35 80.25 311.94 74.63 311.94 74.63 329.23 69.13 329.23 69.13 311.94 63.53 311.94 63.53 306.35 80.25 306.35"/><path class="cls-1" d="M107.29,313.77a11.41,11.41,0,0,0-2.09-1.47,5.89,5.89,0,0,0-2.88-.66,6.16,6.16,0,0,0-2.15.38,5,5,0,0,0-1.78,1.13,5.28,5.28,0,0,0-1.2,1.93,8.14,8.14,0,0,0-.43,2.75,7.62,7.62,0,0,0,.45,2.77,5,5,0,0,0,1.21,1.88,4.94,4.94,0,0,0,1.75,1.1,6.23,6.23,0,0,0,2.06.35,5.44,5.44,0,0,0,2.87-.73,4.45,4.45,0,0,0,1.8-1.93l4.12,3.44a7.62,7.62,0,0,1-1.61,2.15,9.42,9.42,0,0,1-2.11,1.5,9.8,9.8,0,0,1-2.43.88,12.2,12.2,0,0,1-2.64.29,11.15,11.15,0,0,1-4.38-.86,10.18,10.18,0,0,1-3.48-2.4,11,11,0,0,1-2.29-3.76,13.78,13.78,0,0,1-.82-4.89,13.37,13.37,0,0,1,.82-4.83,10.57,10.57,0,0,1,2.3-3.63,10.14,10.14,0,0,1,3.52-2.3,11.9,11.9,0,0,1,4.45-.81,12.74,12.74,0,0,1,4.71.85,12,12,0,0,1,3.76,2.35Z"/><path class="cls-1" d="M119.76,315.68h3.53a1.55,1.55,0,0,0,1.28-.51,2,2,0,0,0,.42-1.34,2.09,2.09,0,0,0-.42-1.36,1.53,1.53,0,0,0-1.28-.53h-3.53Zm4.45-9.33a6.54,6.54,0,0,1,2.8.55,5.62,5.62,0,0,1,2,1.48,6.07,6.07,0,0,1,1.15,2.16,8.68,8.68,0,0,1,.37,2.57,8.13,8.13,0,0,1-.7,3.39,5.21,5.21,0,0,1-2.2,2.44l4.55,10.29H126l-3.74-9.45h-2.54v9.45h-5.48V306.35Z"/><path class="cls-1" d="M139.86,306.35v14.44a3.42,3.42,0,0,0,.7,2.38,3.16,3.16,0,0,0,2.41.76,3.39,3.39,0,0,0,2.39-.74,3.21,3.21,0,0,0,.78-2.4V306.35h5.32v14.39c0,3-.74,5.2-2.22,6.63a8.67,8.67,0,0,1-6.33,2.16q-4.41,0-6.46-2.26t-2.07-6.51V306.35Z"/><path class="cls-1" d="M533.6,238.08c.44-.34.9-.66,1.36-1a8.89,8.89,0,0,1,1.51-.76,9.92,9.92,0,0,1,1.77-.5,11.3,11.3,0,0,1,2.09-.18,7.82,7.82,0,0,1,5.46,1.75,6.55,6.55,0,0,1,1.9,5.07,12,12,0,0,1-1.26,5.26,22.81,22.81,0,0,1-3.89,5.51h5.3v5.59H533.15v-.39c1.74-2,3.19-3.66,4.34-5.11a42.92,42.92,0,0,0,2.78-3.86,14.71,14.71,0,0,0,1.48-2.95,7.34,7.34,0,0,0,.44-2.37,2.93,2.93,0,0,0-.74-2.22,3.05,3.05,0,0,0-2.14-.68,5.13,5.13,0,0,0-2,.37,7.27,7.27,0,0,0-1.84,1.12Z"/><path class="cls-1" d="M562.4,241.28a2.85,2.85,0,0,0-2.54,1.51,12,12,0,0,0,0,9.25,2.89,2.89,0,0,0,5.08,0,12,12,0,0,0,0-9.28,2.83,2.83,0,0,0-2.54-1.51m-.06,17.88a7.53,7.53,0,0,1-3.83-1,8.92,8.92,0,0,1-2.79-2.65,12.6,12.6,0,0,1-1.71-3.75,16.54,16.54,0,0,1-.58-4.32A16,16,0,0,1,554,243a12.54,12.54,0,0,1,1.73-3.75,9,9,0,0,1,2.8-2.62,7.86,7.86,0,0,1,7.64,0A9.1,9.1,0,0,1,569,239.3a12.29,12.29,0,0,1,1.73,3.77,16.39,16.39,0,0,1,.58,4.37,15.85,15.85,0,0,1-.59,4.35,12.54,12.54,0,0,1-1.74,3.75,8.7,8.7,0,0,1-2.81,2.63,7.44,7.44,0,0,1-3.86,1"/><path class="cls-1" d="M584.53,249.92v-4.1l-3.47,4.1Zm4.61-14.24v14.24h2.57v4.37h-2.57v4.57h-4.61v-4.57H573.38v-.39l15.4-18.22Z"/><path class="cls-1" d="M478.73,280.5h3.53a1.57,1.57,0,0,0,1.28-.51,2.06,2.06,0,0,0,.42-1.35,2.12,2.12,0,0,0-.42-1.36,1.54,1.54,0,0,0-1.28-.52h-3.53Zm4.45-9.33a6.54,6.54,0,0,1,2.8.55,5.71,5.71,0,0,1,2,1.48,6.11,6.11,0,0,1,1.15,2.15,8.78,8.78,0,0,1,.37,2.57,8.21,8.21,0,0,1-.7,3.4,5.21,5.21,0,0,1-2.2,2.44L491.11,294H485l-3.74-9.45h-2.54V294h-5.48V271.17Z"/><path class="cls-1" d="M498.82,271.17v14.44a3.42,3.42,0,0,0,.71,2.38,3.14,3.14,0,0,0,2.4.76,3.35,3.35,0,0,0,2.4-.75,3.21,3.21,0,0,0,.77-2.39V271.17h5.33v14.38c0,3-.74,5.21-2.22,6.64a8.7,8.7,0,0,1-6.34,2.15q-4.39,0-6.46-2.25t-2.06-6.51V271.17Z"/><polygon class="cls-1" points="529.48 271.17 529.48 276.76 520 276.76 520 279.63 529.36 279.63 529.36 284.98 520 284.98 520 288.45 529.57 288.45 529.57 294.04 514.52 294.04 514.52 271.17 529.48 271.17"/><path class="cls-1" d="M547.66,288.45h2.6a4.16,4.16,0,0,0,3.65-1.6,8.42,8.42,0,0,0,0-8.46,4.16,4.16,0,0,0-3.65-1.6h-2.6Zm2.27-17.28a11.11,11.11,0,0,1,4.88,1,9.48,9.48,0,0,1,3.27,2.59,10.16,10.16,0,0,1,1.85,3.65,15.11,15.11,0,0,1,.59,4.17,15.6,15.6,0,0,1-.56,4.11,10.39,10.39,0,0,1-1.81,3.7,9.28,9.28,0,0,1-3.27,2.66,10.86,10.86,0,0,1-5,1h-7.74V271.17Z"/><path class="cls-1" d="M569.34,271.17v14.44A3.42,3.42,0,0,0,570,288a3.16,3.16,0,0,0,2.41.76,3.33,3.33,0,0,0,2.39-.75,3.17,3.17,0,0,0,.78-2.39V271.17h5.32v14.38c0,3-.73,5.21-2.21,6.64a8.71,8.71,0,0,1-6.34,2.15q-4.39,0-6.46-2.25t-2.06-6.51V271.17Z"/><polygon class="cls-1" points="608.19 271.17 608.19 276.76 599.3 276.76 599.3 280.35 608.07 280.35 608.07 285.67 599.3 285.67 599.3 294.04 593.83 294.04 593.83 271.17 608.19 271.17"/><path class="cls-1" d="M617.1,288.45h4.13a1.78,1.78,0,0,0,1.4-.61,2.33,2.33,0,0,0,.54-1.6,2.22,2.22,0,0,0-.54-1.59,1.84,1.84,0,0,0-1.37-.56H617.1Zm0-8H621a1.59,1.59,0,0,0,1.21-.47,1.87,1.87,0,0,0,.43-1.33,2.06,2.06,0,0,0-.45-1.39,1.62,1.62,0,0,0-1.31-.52H617.1Zm4.19-9.3a7.62,7.62,0,0,1,3,.52,5.47,5.47,0,0,1,2,1.41,5.58,5.58,0,0,1,1.15,2,7.84,7.84,0,0,1,.37,2.44,6.14,6.14,0,0,1-.52,2.69A4.68,4.68,0,0,1,625.8,282a5.81,5.81,0,0,1,2,2.18,6.73,6.73,0,0,1,.73,3.21,7.91,7.91,0,0,1-.41,2.54,6.25,6.25,0,0,1-1.25,2.11,6,6,0,0,1-2,1.45,6.74,6.74,0,0,1-2.77.53H611.62V271.17Z"/><path class="cls-1" d="M651.7,280.59a5.42,5.42,0,0,1,.22,1.07,13.1,13.1,0,0,1,.08,1.53,13.89,13.89,0,0,1-.79,4.87,9.81,9.81,0,0,1-2.17,3.49,9.1,9.1,0,0,1-3.22,2.09,10.84,10.84,0,0,1-3.93.7,11.06,11.06,0,0,1-4.37-.85,10.16,10.16,0,0,1-3.46-2.42,11.18,11.18,0,0,1-2.29-3.77,13.91,13.91,0,0,1-.82-4.92,12.72,12.72,0,0,1,.94-5.1,10,10,0,0,1,6.13-5.71,13,13,0,0,1,4.26-.7,13.08,13.08,0,0,1,4.52.76,12.12,12.12,0,0,1,3.61,2l-2.9,4.75a6.38,6.38,0,0,0-2.26-1.43,7.84,7.84,0,0,0-2.85-.51,6.57,6.57,0,0,0-2.51.46,5.3,5.3,0,0,0-1.87,1.29,5.59,5.59,0,0,0-1.17,2,7.43,7.43,0,0,0-.4,2.51,7.63,7.63,0,0,0,.36,2.39,5.59,5.59,0,0,0,1.07,1.93,5,5,0,0,0,1.77,1.29,5.9,5.9,0,0,0,2.42.46,5.3,5.3,0,0,0,3.25-.94,4.31,4.31,0,0,0,1.63-2.68h-4.34v-4.54Z"/><path class="cls-1" d="M495.29,313.2a13.13,13.13,0,0,0-1.55-.72c-.56-.22-1.13-.41-1.71-.58a13.4,13.4,0,0,0-1.7-.39,10,10,0,0,0-1.58-.14q-2.61,0-2.61,1.65a1.28,1.28,0,0,0,.47,1.06,5.21,5.21,0,0,0,1.24.7l.94.36c.49.18,1,.4,1.67.65s1.26.51,1.9.79,1.18.54,1.62.78a6.77,6.77,0,0,1,2.51,2.15,5.59,5.59,0,0,1,.81,3.14,6.36,6.36,0,0,1-2.11,5,8.92,8.92,0,0,1-6.08,1.87q-.81,0-1.89-.09a16.84,16.84,0,0,1-2.23-.35,23.06,23.06,0,0,1-2.32-.65,11.2,11.2,0,0,1-2.18-1l1.14-5a11,11,0,0,0,1.79.79,18.94,18.94,0,0,0,2,.57,17.66,17.66,0,0,0,1.92.34,13,13,0,0,0,1.64.12,3.81,3.81,0,0,0,2.17-.48,1.48,1.48,0,0,0,.68-1.28,1.42,1.42,0,0,0-.44-1.09,3.8,3.8,0,0,0-1.3-.73l-.91-.32c-.43-.15-.91-.33-1.45-.54l-1.68-.67c-.58-.24-1.09-.48-1.55-.72a7.81,7.81,0,0,1-2.77-2.23,5.54,5.54,0,0,1-1-3.45,6.52,6.52,0,0,1,.58-2.84,5.89,5.89,0,0,1,1.66-2.08,7.41,7.41,0,0,1,2.59-1.29,12.55,12.55,0,0,1,3.36-.43,14.88,14.88,0,0,1,3.86.51,15.15,15.15,0,0,1,3.74,1.58Z"/><polygon class="cls-1" points="516.08 306.35 516.08 311.94 510.46 311.94 510.46 329.23 504.95 329.23 504.95 311.94 499.36 311.94 499.36 306.35 516.08 306.35"/><polygon class="cls-1" points="528.22 306.05 538.75 320.53 549.33 306.05 549.75 306.05 549.75 329.23 544.58 329.23 544.58 321.63 538.84 329.53 538.45 329.53 533.03 321.84 533.03 329.23 527.86 329.23 527.86 306.05 528.22 306.05"/><path class="cls-1" d="M562.67,317.62l-2,4.79h3.91Zm.3-11.57,10.35,23.18h-6l-1.2-2.93h-7.09l-1.19,2.93H552.2l10.32-23.18Z"/><path class="cls-1" d="M581.27,315.68h3.53a1.57,1.57,0,0,0,1.29-.51,2,2,0,0,0,.42-1.34,2.09,2.09,0,0,0-.42-1.36,1.56,1.56,0,0,0-1.29-.53h-3.53Zm4.46-9.33a6.46,6.46,0,0,1,2.79.55,5.53,5.53,0,0,1,2,1.48,6.09,6.09,0,0,1,1.16,2.16,9,9,0,0,1,.37,2.57,8.29,8.29,0,0,1-.7,3.39,5.26,5.26,0,0,1-2.2,2.44l4.55,10.29h-6.11l-3.74-9.45h-2.54v9.45H575.8V306.35Z"/><polygon class="cls-1" points="611.48 306.35 611.48 311.94 605.86 311.94 605.86 329.23 600.35 329.23 600.35 311.94 594.76 311.94 594.76 306.35 611.48 306.35"/><rect class="cls-1" x="614.47" y="306.35" width="5.47" height="22.88"/><polygon class="cls-1" points="624.67 306.05 637.73 317.62 637.73 306.35 643 306.35 643 329.53 642.61 329.53 629.57 317.92 629.57 329.23 624.31 329.23 624.31 306.05 624.67 306.05"/></g></g></svg>