<svg xmlns="http://www.w3.org/2000/svg" viewBox="0 0 79.44 110.6"><defs><style>.cls-1{fill:#fff;}</style></defs><g id="Calque_2" data-name="Calque 2"><g id="Calque_1-2" data-name="Calque 1"><path class="cls-1" d="M48.18,96.76c.31,3.37-1.38,7,.3,9.45,5.16-.84,11.4-.6,15.61-2.4-4.39-1-9-1.72-11.26-4.8-.68-.93-.59-2.07-1.65-2.85a22.11,22.11,0,0,1-3,.6M8.86,90.9c-1.79,2.27-5.17,2.94-6.61,5.56,3.54,4.21,6.05,9.46,12,11.25-.63-4.69-4.91-8.18-2.7-13.8a25.77,25.77,0,0,0-2.7-3M57.33,56.83C50.12,73.33,43.06,89.38,36,105.46c-.4.91-1.82,2.49-.9,3.31,1.49.26,1.75-1.78,2.1-2.56C45.08,88.85,52.82,71.14,60.64,54c-1.85-2.06-2.42.84-3.31,2.85m-6-2.7c-.37.42-1.14.46-1.65.75.86,3.3,1.37,6.94,2.25,10.21C53.8,60.7,55.82,56.47,57.64,52c-1.1-1.85-3.37-2.54-6.61-2.25.07,1.46.63,3,.3,4.35m-8.4-1.5a31.6,31.6,0,0,1,6.45,0c0-1-.21-1.89-.3-2.85a43.36,43.36,0,0,1-6.75-.45,11.62,11.62,0,0,0,.6,3.3M61.39,45c-1.31-.3-2.75.32-4.06.15a49.63,49.63,0,0,1-5.7-1.66c-2.09-.57-4.21-1.35-5.85-1.95-2.29,1.52-4.5,3.11-6.6,4.81,4.3,2.88,11.34.18,16.65,1.8,2.79.84,3.58,4.43,7.06,4,1.13-1.47,2.47-2.73,2.7-5.1-1.57.11-2.78-1.79-4.2-2.1M44.88,35.52c1.12,1.38,1.39,3.61,2.85,4.65-.11-5.3-1.39-10.72-2.55-15.46a11.6,11.6,0,0,0-1.35-1.05c-.14,4.42,2.15,7.4,1.05,11.86M42,27.41c-.22-1.43.22-3.09-.3-4.35-.61-1.46-3.25-2.59-4.06-3.75-2,.34-4.25-.06-6.3.6s-2.92,3.92-3.75,6.3c-.36,1-.93,2-1.2,2.86-.46,1.51-.46,3.39-.9,5.1s-1.34,3.06-1.66,4.35c-.52,2.18-.22,4.33-.89,6-.43,1.06-1.27,1.8-1.51,2.7s0,2.49-.15,3.45c-.22,1.38-1.72,3.14-.9,4.8.6.85,1.64.59,2.7,1.05s1.58,1.42,2.56,1.66c1.3.3,2.58,0,3.75.44s1.85,1.47,2.85,1.65c.64.13,1.36-.21,1.95-.15,1.48.16,2.72,1.46,4.35,1.06,1.27-1,.47-2.86.75-4.36s1.48-2.48,1.5-4.2c0-1.32-.66-2.17-.44-3.75a9.84,9.84,0,0,1-3.16-1.5c-2.88,2.69-5.34-3-6.6-5.7a29,29,0,0,1-2.4-8.86c-.33-4.36,1.2-9.86,4.2-10.36,2.81-.46,5.66,1.91,7.21,3.45a35.7,35.7,0,0,1,3.3,4.36c0-1.11-.74-1.74-.9-2.86m27.76,5.86a23.28,23.28,0,0,1,1.8-3.75c1.12-1.55,3.51-2,4.66-3.31a6.83,6.83,0,0,0,.9-6.9c-1.94-3.5-8.81-2.88-10.81,0-.72,1-1.53,3.14-.6,4.8,1.61-.13,1.38-2,2-3,1.43-2.43,7.83-3.21,8.11.75C76,25.2,72.67,25.65,71,27.27s-2.7,5.1-4,8.1a84,84,0,0,0-3.6,8.56,3.06,3.06,0,0,0,1.35.75c1.91-3.63,3.43-7.66,5.1-11.41M46.08,11.5c-.29,1.2-.9,3.38.3,4.06.41-1.26,1.45-2.46,1.35-3.75-.42-.1-.91-.55-1.65-.31m-.6-3.9a12.6,12.6,0,0,0-5.85-.3c-.87.48-.66,2-1.66,2.25-.79.25-1.12-.52-1.95-.3-1.75,1.05.14,2.81.15,4.36s-.8,2.43-1.05,3.75c.71.13,2-.17,2.85,0,.62.13,1.37,1.09,2.11,1.35,2.36.85,5.52-.06,5.46-1.56,0-.52-.8-1.12-1.41-1.29-1.23-.34-3.28.09-4.22-.44.45-1.26,3.12-.61,4.07-1.36.35-1.06-.08-2.89.45-3.75,1.19-1,2.72-.39,3.75,0,1.16-1.86-1-2.29-2.7-2.71m4.8,3.31c-1.62,3.73-2.29,8.41-6.45,9.6.42,1.54,2.77,2.09,3.45,3.9.41,1.09.34,2.8.75,4.36a61.32,61.32,0,0,1,1.8,12.15c4,.75,6.92,2.92,11.71,2.1,1.43-2.53,2.61-5.64,3.9-8.55s2.28-6.09,4.2-8.11c1.09-1.14,4.82-2.26,4.51-4.35-.19-1.23-2.82-2-4.36-.75-1.73,1.39-.83,4.07-3.15,4.5-4.16.79-3.18-5-1.8-7.2,3.38-5.38,14-3.9,14.56,2.55A7.92,7.92,0,0,1,76,28.61c-.76.53-1.94.66-2.7,1.51a16.29,16.29,0,0,0-1.81,3.6c-1.68,3.85-3,7.21-5,11.11,2.55,3-.63,7.06-2.4,9-.56.1-.89.41-1.65.3-2.19,4.69-4.45,10-6.75,15.16-1.21,2.69-2.25,3.84-2.11,7.21A178.35,178.35,0,0,1,53.13,95c.76,3.07,3.25,5.07,6.76,6,2.23.6,6,.44,6.3,2.55.22,1.77-1.78,2.69-3.45,3-4.76.91-10.07,1.18-15.16,1.66-2.63-1.89-1.71-7.27-1.2-10.81a5.21,5.21,0,0,1-2-2.7c-1.87,3.4-3.75,8.06-5.71,12.45-.59,1.34-1.32,3.24-2.55,3.45a3.46,3.46,0,0,1-3-1.19c-.68-1.44,1-4.27,1.65-5.71,1.7-3.78,2.91-6.72,4.65-10.66.7-1.56,2.33-3.9,2.41-5.25s-1-3.36-1.35-4.5c-1.3-4.73-1.77-9.53-3-14.26-2,3.48-3.17,6.94-5.7,9.76-2.67,3-6.24,5.29-9.46,7.8s-6.1,5.36-9.15,8c-1.13,4,.59,5.75,1.8,8.71.78,1.91,2.56,6.11-.3,6.61-2,.34-5.12-1.87-6.3-2.86a41,41,0,0,1-4.36-5.1c-1.16-1.44-4-3.71-4-5.4-.09-3.28,6.36-4.58,7.66-7.21.44-2.84,2.61-5.69,4.2-8.25a37.5,37.5,0,0,1,9.45-10.66,48,48,0,0,1,1.8-11.26c-.81-1.11-3.19-.95-4.2-2.4-1.52-2.18.13-4.46.45-6.3.08-.43-.09-1.56,0-2.4.17-1.53,1.4-2.92,1.95-4.65s.16-3.77.75-5.71c.27-.85.92-1.57,1.2-2.4.77-2.21.67-4.48,1.21-6.45.26-1,.85-2.05,1.2-3,1.33-3.71,2.3-8,7.2-8,.53-1.36,1.41-2.65,1.35-4.2,0-1.15-1.13-2.1-.75-3.46C29.94,5,34.28.64,39.18.1c3.52-.4,8,.41,10,2.1,1,.86,1.91,2.14,3,3.15,1.34,1.24,2.4,2.42,2.25,3.75-.19,1.78-2.16,2.5-4.2,1.81"/><path class="cls-1" d="M39.32,10.3a9.23,9.23,0,0,1,3.91.61c.17,0,.25-.93,0-1.42-.73-1.12-3.93-1.26-3.86.81"/><path class="cls-1" d="M41.5,16.78c.11,1,1.56,2.33,3.15.36,0-.27-2.58-.81-3.15-.36"/></g></g></svg>