<svg xmlns="http://www.w3.org/2000/svg" viewBox="0 0 53.84 53.82"><defs><style>.cls-1{fill:#2b2c83;}</style></defs><g id="Calque_2" data-name="Calque 2"><g id="Calque_1-2" data-name="Calque 1"><path class="cls-1" d="M47.91,42.78a9.09,9.09,0,0,1-5.12,5.11C39.25,49.3,30.84,49,26.92,49s-12.33.32-15.86-1.08a9.06,9.06,0,0,1-5.12-5.11c-1.4-3.55-1.08-12-1.08-15.87S4.55,14.58,5.94,11.05a9.08,9.08,0,0,1,5.12-5.12c3.54-1.4,12-1.08,15.86-1.08s12.34-.31,15.87,1.08a9.11,9.11,0,0,1,5.12,5.12C49.31,14.59,49,23,49,26.91s.32,12.34-1.08,15.87m5.74-27c-.21-4.31-1.19-8.13-4.35-11.27S42.33.41,38,.19,20.26-.06,15.81.19C11.51.39,7.7,1.38,4.54,4.53S.41,11.49.19,15.8-.06,33.56.19,38s1.19,8.13,4.35,11.28,7,4.13,11.27,4.34,17.77.26,22.21,0,8.13-1.19,11.28-4.34,4.13-7,4.35-11.28.25-17.75,0-22.2m-9.14-3.26a3.22,3.22,0,1,1-3.22-3.22,3.21,3.21,0,0,1,3.22,3.22M26.92,35.88a9,9,0,1,1,9-9,9,9,0,0,1-9,9m0-22.77a13.8,13.8,0,1,0,13.8,13.8,13.78,13.78,0,0,0-13.8-13.8"/></g></g></svg>