<svg xmlns="http://www.w3.org/2000/svg" viewBox="0 0 126.53 129.3"><defs><style>.cls-1{fill:#2b2c83;}</style></defs><g id="Calque_2" data-name="Calque 2"><g id="Calque_1-2" data-name="Calque 1"><path class="cls-1" d="M20.27,23a7.25,7.25,0,0,0-1.47.38,3.53,3.53,0,0,0-1.4,1,3.71,3.71,0,0,0-.66,1.11,2.79,2.79,0,0,0-.17,1.24A3.09,3.09,0,0,0,17,28a4.47,4.47,0,0,0,1.07,1.25,4.32,4.32,0,0,0,1.41.86A2.85,2.85,0,0,0,21.94,30a3.62,3.62,0,0,0,1-.79,3.24,3.24,0,0,0,.77-1.58A2.63,2.63,0,0,0,23.5,26l3.13-.53A4.63,4.63,0,0,1,27,27.06a5.56,5.56,0,0,1-.14,1.52A5.46,5.46,0,0,1,26.3,30a7,7,0,0,1-.88,1.29A6.66,6.66,0,0,1,23.34,33a6.09,6.09,0,0,1-2.42.64,6.51,6.51,0,0,1-2.57-.42,8.32,8.32,0,0,1-2.52-1.51A8.08,8.08,0,0,1,14,29.44,6.22,6.22,0,0,1,13.23,27a5.84,5.84,0,0,1,.32-2.47,7,7,0,0,1,1.35-2.32,7.22,7.22,0,0,1,4.7-2.58Z"/><path class="cls-1" d="M28.89,17.13,30.63,16a.94.94,0,0,0,.46-.68,1.22,1.22,0,0,0-.25-.8,1.32,1.32,0,0,0-.66-.53,1,1,0,0,0-.81.18L27.63,15.3Zm-.95-6.06a4,4,0,0,1,1.56-.67,3.4,3.4,0,0,1,1.46.07,3.62,3.62,0,0,1,1.29.67,4.93,4.93,0,0,1,1,1.13,4.87,4.87,0,0,1,.8,1.9,3,3,0,0,1-.26,1.93l5.71,3.5-3,2-5-3.37-1.25.86,3.19,4.62L30.78,25.6,23.06,14.41Z"/><path class="cls-1" d="M39.36.81,42.06,3l-1.92.7-3.07-2ZM45.12,3l1.18,3.1L41,8l.6,1.59,5.27-1.93,1.13,3-5.28,1.93.73,1.92,5.39-2L50,15.62l-8.47,3.1L36.7,6Z"/><polygon class="cls-1" points="64.55 0 64.31 0.02 58.73 9.07 51.83 1.02 51.61 1.03 52.71 14.72 55.77 14.47 55.42 10.11 58.98 14.4 59.21 14.38 62.23 9.45 62.59 13.93 65.65 13.69 64.55 0"/><polygon class="cls-1" points="80.25 2.58 79.61 5.83 74.05 4.74 73.72 6.41 79.2 7.49 78.59 10.6 73.1 9.53 72.7 11.55 78.31 12.64 77.66 15.9 68.85 14.17 71.5 0.86 80.25 2.58"/><path class="cls-1" d="M86.84,10.94l1.9.89a.89.89,0,0,0,.82.05,1.18,1.18,0,0,0,.57-.61,1.28,1.28,0,0,0,.12-.84.93.93,0,0,0-.56-.61l-1.9-.89ZM91.6,7.05a4,4,0,0,1,1.37,1,3.46,3.46,0,0,1,.68,1.3,3.65,3.65,0,0,1,.07,1.44,5,5,0,0,1-.45,1.48A4.79,4.79,0,0,1,92,13.92a3,3,0,0,1-1.8.75l-.16,6.69-3.28-1.55.38-6-1.36-.65-2.4,5.08-2.94-1.38,5.79-12.3Z"/><polygon class="cls-1" points="102.73 13.93 94.56 24.93 91.91 22.99 100.08 11.98 102.73 13.93"/><polygon class="cls-1" points="113.42 24.34 110.98 26.6 107.15 22.47 105.9 23.63 109.69 27.71 107.35 29.88 103.56 25.8 102.05 27.2 105.92 31.38 103.49 33.64 97.4 27.08 107.37 17.82 113.42 24.34"/><polygon class="cls-1" points="22.11 96.17 19.47 97.89 16.77 93.66 15.07 94.76 17.73 98.93 15.22 100.56 12.56 96.39 8.6 98.95 6.94 96.35 17.75 89.34 22.11 96.17"/><path class="cls-1" d="M21.66,103.49l1.39,1.41a.9.9,0,0,0,.71.32,1.13,1.13,0,0,0,.7-.36,1.22,1.22,0,0,0,.38-.71.86.86,0,0,0-.3-.72L23.16,102Zm5.49-1.89a3.66,3.66,0,0,1,.87,1.34,3.27,3.27,0,0,1,.18,1.37,3.34,3.34,0,0,1-.41,1.31,4.87,4.87,0,0,1-.88,1.16,4.67,4.67,0,0,1-1.64,1.06,2.94,2.94,0,0,1-1.83.08L21.1,113.8l-2.39-2.45L21,106.12l-1-1-3.78,3.73-2.15-2.2,9.16-9Z"/><path class="cls-1" d="M34.31,111a2.81,2.81,0,0,0-1.13-.43,2.58,2.58,0,0,0-1.14.08,3.15,3.15,0,0,0-1.07.59,4.49,4.49,0,0,0-.94,1.1,4.81,4.81,0,0,0-.59,1.33,3.12,3.12,0,0,0-.08,1.24,2.68,2.68,0,0,0,.43,1.07,2.84,2.84,0,0,0,.88.84,3,3,0,0,0,1.12.43,2.54,2.54,0,0,0,1.13-.08,3.15,3.15,0,0,0,1.09-.59,4.87,4.87,0,0,0,1-1.12,4.38,4.38,0,0,0,.59-1.35,3.05,3.05,0,0,0,.07-1.23,2.79,2.79,0,0,0-.43-1.06,2.9,2.9,0,0,0-.88-.82M36,108.31a5.79,5.79,0,0,1,1.88,1.83,5.63,5.63,0,0,1,.82,2.24,6.51,6.51,0,0,1-.13,2.4,7.6,7.6,0,0,1-1,2.27,7.4,7.4,0,0,1-1.63,1.85,6.39,6.39,0,0,1-2.1,1.16,6,6,0,0,1-6.73-2.48,5.56,5.56,0,0,1-.81-2.25,6.23,6.23,0,0,1,.16-2.38,7.5,7.5,0,0,1,1-2.25A7.63,7.63,0,0,1,29,108.84a6.21,6.21,0,0,1,2.1-1.16,5.66,5.66,0,0,1,2.36-.25,5.73,5.73,0,0,1,2.46.88"/><polygon class="cls-1" points="42.66 112.23 45.95 121.69 53.97 115.65 54.2 115.72 50.44 128.13 47.66 127.29 48.9 123.22 44.54 126.52 44.33 126.46 42.68 121.47 41.48 125.42 38.71 124.58 42.46 112.17 42.66 112.23"/><path class="cls-1" d="M59.56,125.19l1.22-2.63,1,2.72Zm-5,3.62,3.21.13.75-1.61,4,.16.6,1.67,3.37.14-5.32-13.2H61Z"/><path class="cls-1" d="M80.13,119.35a2.69,2.69,0,0,1,.24.56c.07.23.14.5.21.83a7.68,7.68,0,0,1,.1,2.76,5.54,5.54,0,0,1-.81,2.15,4.9,4.9,0,0,1-1.54,1.5,6.24,6.24,0,0,1-2.08.82,6.33,6.33,0,0,1-2.49,0,5.76,5.76,0,0,1-2.18-1,6.37,6.37,0,0,1-1.67-1.82,7.82,7.82,0,0,1-1-2.6,7.11,7.11,0,0,1,0-2.9,5.9,5.9,0,0,1,1-2.25,5.83,5.83,0,0,1,1.75-1.56,7.49,7.49,0,0,1,2.27-.85,7.15,7.15,0,0,1,2.56-.07,6.9,6.9,0,0,1,2.21.7l-1.07,2.93a3.59,3.59,0,0,0-1.4-.54,4.42,4.42,0,0,0-1.62,0,3.71,3.71,0,0,0-1.33.53,3.08,3.08,0,0,0-.89.91,3.24,3.24,0,0,0-.43,1.21,4.31,4.31,0,0,0,.06,1.42,4.26,4.26,0,0,0,.46,1.27,3.05,3.05,0,0,0,.8.94,2.75,2.75,0,0,0,1.11.51,3.21,3.21,0,0,0,1.38,0,2.89,2.89,0,0,0,1.68-.87,2.41,2.41,0,0,0,.61-1.65l-2.39.48-.5-2.5Z"/><polygon class="cls-1" points="88.52 109.92 89.82 112.77 84.96 114.97 85.63 116.44 90.43 114.27 91.67 117 86.88 119.17 87.68 120.94 92.59 118.72 93.89 121.58 86.18 125.07 80.86 113.38 88.52 109.92"/><path class="cls-1" d="M95.93,111.26l1.6-1.18a.87.87,0,0,0,.41-.66,1.14,1.14,0,0,0-.26-.74,1.25,1.25,0,0,0-.64-.48.87.87,0,0,0-.76.2l-1.6,1.17Zm-1.1-5.69a3.7,3.7,0,0,1,1.45-.69,3.2,3.2,0,0,1,1.38,0,3.42,3.42,0,0,1,1.24.58,5.08,5.08,0,0,1,1,1,4.56,4.56,0,0,1,.82,1.76,2.88,2.88,0,0,1-.18,1.83l5.5,3.12-2.76,2-4.85-3-1.16.84,3.17,4.26L98,119.18l-7.66-10.3Z"/><rect class="cls-1" x="103.51" y="98.47" width="3.1" height="12.96" transform="translate(-43.42 107.63) rotate(-46)"/><polygon class="cls-1" points="108.15 90.55 110.72 92.35 107.68 96.73 109.01 97.65 112.01 93.33 114.48 95.05 111.47 99.37 113.07 100.49 116.14 96.07 118.72 97.87 113.89 104.81 103.35 97.45 108.15 90.55"/><path class="cls-1" d="M15.41,52.78V57.5c-2.9-.24-4.59-.34-8.18-.34v5.42c2,0,3.52,0,6-.13V67c-2.51-.1-4-.1-6-.13v2.29a56.42,56.42,0,0,0,.39,7.37H0a56.42,56.42,0,0,0,.39-7.37v-9A56.42,56.42,0,0,0,0,52.78Z"/><path class="cls-1" d="M21.51,60.15a56.42,56.42,0,0,0-.39-7.37H36.3V57.3C34.24,57.2,31,57,28.15,57v5.45c2.64,0,4.76-.1,6-.17v4.38c-1.24-.06-3.36-.16-6-.16v5.71h3a50.45,50.45,0,0,0,5.67-.37v4.62H21.12a56.42,56.42,0,0,0,.39-7.37Z"/><path class="cls-1" d="M50.06,62.74a4.18,4.18,0,0,0,.81.07c2,0,3.17-.83,3.17-2.72a2.84,2.84,0,0,0-3.13-2.93,5.54,5.54,0,0,0-.85.07Zm4.14-10c4.64,0,7.28,3.19,7.28,6.84a7.09,7.09,0,0,1-3.92,6.25c3,6.57,4,9.22,5,10.62H54.2c-1.27-3.89-2.48-7.17-3.26-9.3h-.88v6.08a21.6,21.6,0,0,0,.23,3.22H42.81a56.42,56.42,0,0,0,.39-7.37v-9a56.42,56.42,0,0,0-.39-7.37Z"/><path class="cls-1" d="M73.65,52.78c2.73,4.22,5.4,8.47,8,12.79h.06V60.15a56.42,56.42,0,0,0-.39-7.37h5.4a56.42,56.42,0,0,0-.39,7.37v9a56.42,56.42,0,0,0,.39,7.37H81.26C77.33,71,75.12,67.42,73.39,64.6h-.06v4.52a56.42,56.42,0,0,0,.39,7.37H68.06a56.42,56.42,0,0,0,.39-7.37v-9a56.42,56.42,0,0,0-.39-7.37Z"/><path class="cls-1" d="M101.18,52.78a55,55,0,0,0-.4,7.37v9a55,55,0,0,0,.4,7.37H93.41a56.42,56.42,0,0,0,.39-7.37v-9a56.42,56.42,0,0,0-.39-7.37Z"/><path class="cls-1" d="M113.49,52.78c2.73,4.22,5.4,8.47,8,12.79h.06V60.15a56.42,56.42,0,0,0-.39-7.37h5.4a56.42,56.42,0,0,0-.39,7.37v9a56.42,56.42,0,0,0,.39,7.37H121.1C117.17,71,115,67.42,113.23,64.6h-.06v4.52a56.42,56.42,0,0,0,.39,7.37H107.9a56.42,56.42,0,0,0,.39-7.37v-9a56.42,56.42,0,0,0-.39-7.37Z"/></g></g></svg>