<svg xmlns="http://www.w3.org/2000/svg" viewBox="0 0 69.03 92.04"><defs><style>.cls-1{fill:#2b2c83;}.cls-2{fill:#fff;}</style></defs><g id="Calque_2" data-name="Calque 2"><g id="Calque_1-2" data-name="Calque 1"><path class="cls-1" d="M31,90.19C4.85,52.32,0,48.43,0,34.52a34.52,34.52,0,1,1,69,0c0,13.91-4.85,17.8-31,55.67a4.32,4.32,0,0,1-7.09,0"/><path class="cls-2" d="M38.7,53.06c.13,1.45-.6,3,.13,4.07,2.22-.36,4.9-.26,6.72-1-1.89-.42-3.87-.73-4.85-2.06-.29-.4-.25-.89-.71-1.23a9.81,9.81,0,0,1-1.29.26M21.78,50.54c-.77,1-2.23,1.26-2.85,2.39,1.53,1.81,2.6,4.07,5.17,4.84-.27-2-2.11-3.52-1.16-5.94a11.86,11.86,0,0,0-1.16-1.29M42.64,35.88,33.47,56.81c-.17.39-.79,1.07-.39,1.42.64.11.75-.77.9-1.1C37.37,49.66,40.7,42,44.06,34.65c-.79-.89-1,.36-1.42,1.23m-2.58-1.16c-.17.18-.49.19-.71.32.36,1.42.58,3,1,4.39.81-1.89,1.68-3.71,2.46-5.62-.47-.8-1.45-1.09-2.84-1a7.1,7.1,0,0,1,.13,1.88m-3.62-.65a12.92,12.92,0,0,1,2.78,0c0-.44-.09-.81-.13-1.23a19,19,0,0,1-2.91-.19,5.44,5.44,0,0,0,.26,1.42m7.94-3.29c-.56-.13-1.18.14-1.74.06a20.3,20.3,0,0,1-2.45-.71c-.9-.25-1.82-.58-2.52-.84a34.54,34.54,0,0,0-2.85,2.07c1.86,1.24,4.89.08,7.17.77,1.2.37,1.54,1.91,3,1.75a4,4,0,0,0,1.16-2.2c-.67.05-1.19-.77-1.81-.9m-7.1-4.07c.48.59.6,1.55,1.23,2a31.43,31.43,0,0,0-1.1-6.65,5.09,5.09,0,0,0-.58-.46c-.06,1.9.92,3.19.45,5.11m-1.23-3.49a8.09,8.09,0,0,0-.13-1.87c-.26-.63-1.4-1.12-1.74-1.62a19.12,19.12,0,0,0-2.71.26c-.9.29-1.26,1.69-1.62,2.71-.15.44-.4.84-.52,1.23-.19.65-.19,1.46-.38,2.19s-.58,1.32-.71,1.88a25,25,0,0,1-.39,2.58c-.19.46-.55.78-.65,1.16s0,1.08-.06,1.49c-.1.6-.75,1.35-.39,2.07.26.36.7.25,1.16.45s.68.61,1.1.71a11.78,11.78,0,0,1,1.62.19c.44.18.79.63,1.22.71s.59-.09.84-.06c.64.07,1.17.62,1.88.45.54-.44.2-1.23.32-1.87s.64-1.07.64-1.81c0-.57-.28-.94-.19-1.62A4.27,4.27,0,0,1,34,31.81c-1.24,1.16-2.3-1.29-2.84-2.46a12.46,12.46,0,0,1-1-3.81c-.14-1.87.52-4.24,1.81-4.45s2.43.82,3.1,1.48a15.12,15.12,0,0,1,1.42,1.87c0-.47-.32-.74-.39-1.22m12,2.52a9.35,9.35,0,0,1,.78-1.62c.48-.66,1.51-.85,2-1.42a3,3,0,0,0,.39-3c-.84-1.51-3.8-1.24-4.65,0a2.1,2.1,0,0,0-.26,2.07c.69-.06.59-.88.84-1.29.61-1.05,3.37-1.39,3.49.32.09,1.43-1.35,1.63-2.07,2.32s-1.17,2.2-1.75,3.49a37.16,37.16,0,0,0-1.55,3.68,1.36,1.36,0,0,0,.59.33c.82-1.56,1.47-3.3,2.19-4.91M37.8,16.37c-.13.51-.39,1.46.12,1.75.18-.54.63-1.06.59-1.62-.19,0-.4-.24-.71-.13m-.26-1.68A5.49,5.49,0,0,0,35,14.56c-.38.21-.28.84-.71,1s-.49-.22-.84-.13c-.76.45.06,1.21.06,1.88a7.56,7.56,0,0,1-.45,1.61c.3.06.87-.07,1.23,0s.59.47.9.58c1,.37,2.38,0,2.35-.67,0-.22-.34-.48-.6-.56-.53-.14-1.41,0-1.82-.18.19-.54,1.34-.26,1.75-.59.15-.45,0-1.24.19-1.61.52-.45,1.18-.17,1.62,0,.5-.8-.42-1-1.16-1.17m2.06,1.42c-.69,1.61-1,3.62-2.77,4.14.18.66,1.19.9,1.48,1.68.18.47.15,1.2.33,1.87A27.08,27.08,0,0,1,39.41,29c1.74.32,3,1.26,5,.91.62-1.09,1.12-2.43,1.68-3.69a12.28,12.28,0,0,1,1.81-3.48c.47-.5,2.07-1,1.93-1.88-.08-.53-1.21-.85-1.87-.32s-.36,1.75-1.36,1.94c-1.79.33-1.36-2.16-.77-3.1,1.45-2.32,6-1.68,6.27,1.1a3.44,3.44,0,0,1-1.49,3.23c-.33.22-.83.28-1.16.64a6.78,6.78,0,0,0-.78,1.55c-.72,1.66-1.28,3.1-2.13,4.78,1.1,1.3-.27,3-1,3.88a1.87,1.87,0,0,1-.71.13c-1,2-1.92,4.3-2.91,6.52-.52,1.16-1,1.65-.9,3.1a76.94,76.94,0,0,1-.2,7.94,3.69,3.69,0,0,0,2.91,2.59c1,.26,2.6.19,2.71,1.1s-.76,1.15-1.48,1.29c-2,.39-4.34.51-6.53.71-1.13-.81-.73-3.13-.52-4.65a2.34,2.34,0,0,1-.84-1.16c-.8,1.46-1.61,3.47-2.45,5.36-.26.57-.57,1.39-1.1,1.48a1.5,1.5,0,0,1-1.29-.51c-.29-.62.43-1.84.71-2.46.73-1.63,1.25-2.89,2-4.59a10.39,10.39,0,0,0,1-2.26,7.24,7.24,0,0,0-.58-1.93c-.56-2-.76-4.1-1.3-6.14a22.91,22.91,0,0,1-2.45,4.2,30.94,30.94,0,0,1-4.07,3.36C26.2,49.75,25,51,23.65,52.09c-.49,1.7.25,2.47.78,3.75.33.82,1.1,2.63-.13,2.84-.87.15-2.21-.8-2.72-1.23a18.73,18.73,0,0,1-1.87-2.19c-.5-.62-1.72-1.6-1.74-2.33,0-1.41,2.73-2,3.29-3.1a10.68,10.68,0,0,1,1.81-3.55,16.08,16.08,0,0,1,4.07-4.59,20.52,20.52,0,0,1,.77-4.84c-.35-.48-1.37-.41-1.81-1-.65-.94.06-1.92.2-2.71,0-.19,0-.67,0-1a12.94,12.94,0,0,1,.84-2c.23-.71.06-1.62.32-2.45.11-.37.39-.67.52-1,.33-1,.28-1.93.51-2.78.12-.42.37-.88.52-1.29.58-1.6,1-3.46,3.1-3.43a4.43,4.43,0,0,0,.58-1.8c0-.5-.48-.91-.32-1.49-1.52-2.21.35-4.09,2.45-4.33a6.6,6.6,0,0,1,4.33.91c.45.37.82.92,1.29,1.35s1,1,1,1.62c-.08.76-.93,1.07-1.81.77"/></g></g></svg>