<svg xmlns="http://www.w3.org/2000/svg" viewBox="0 0 69.03 92.04"><defs><style>.cls-1{fill:#2b2c83;}.cls-2{fill:#fff;}</style></defs><g id="Calque_2" data-name="Calque 2"><g id="Calque_1-2" data-name="Calque 1"><path class="cls-1" d="M34.31,18.89c.26.06.59.47.9.58,1,.37,2.38,0,2.35-.67,0-.22-.34-.48-.6-.56-.53-.14-1.41,0-1.82-.18.19-.54,1.34-.27,1.75-.59.15-.45,0-1.24.19-1.62.52-.44,1.18-.16,1.62,0,.5-.79-.42-1-1.16-1.16A5.49,5.49,0,0,0,35,14.56c-.38.21-.28.84-.71,1s-.49-.22-.84-.13c-.76.45.06,1.21.06,1.88a7.56,7.56,0,0,1-.45,1.61C33.38,19,34,18.82,34.31,18.89Z"/><path class="cls-1" d="M35.34,32.45A4.27,4.27,0,0,1,34,31.81c-1.24,1.16-2.3-1.29-2.84-2.46a12.46,12.46,0,0,1-1-3.81c-.14-1.87.52-4.24,1.81-4.45s2.43.82,3.1,1.48a15.12,15.12,0,0,1,1.42,1.87c0-.47-.32-.74-.39-1.22a8.21,8.21,0,0,0-.13-1.88c-.26-.63-1.4-1.11-1.74-1.61a17.75,17.75,0,0,0-2.71.26c-.9.29-1.26,1.68-1.62,2.71-.15.44-.4.84-.52,1.23-.19.65-.19,1.46-.38,2.19s-.58,1.32-.71,1.88a25,25,0,0,1-.39,2.58c-.19.46-.55.78-.65,1.16s0,1.08-.06,1.49c-.1.6-.75,1.35-.39,2.07.26.36.7.25,1.16.45s.68.61,1.1.71a11.78,11.78,0,0,1,1.62.19c.44.18.79.63,1.22.71s.59-.09.84-.06c.64.07,1.17.62,1.88.45.54-.44.2-1.23.32-1.87s.64-1.07.64-1.81C35.54,33.5,35.25,33.13,35.34,32.45Z"/><path class="cls-1" d="M37.8,16.37c-.13.51-.39,1.45.12,1.75.18-.55.63-1.06.59-1.62C38.32,16.46,38.11,16.26,37.8,16.37Z"/><path class="cls-1" d="M22.94,51.83a11,11,0,0,0-1.16-1.29c-.77,1-2.23,1.26-2.85,2.39,1.53,1.81,2.6,4.07,5.17,4.84C23.83,55.75,22,54.25,22.94,51.83Z"/><path class="cls-1" d="M37.28,26.71c.48.59.6,1.55,1.23,2a31.52,31.52,0,0,0-1.1-6.66,5,5,0,0,0-.58-.45C36.77,23.5,37.75,24.79,37.28,26.71Z"/><path class="cls-1" d="M40,52.8a9.81,9.81,0,0,1-1.29.26c.13,1.45-.6,3,.13,4.07,2.22-.36,4.9-.26,6.72-1-1.89-.42-3.87-.73-4.85-2.06C40.41,53.63,40.45,53.14,40,52.8Z"/><path class="cls-1" d="M39.35,35c.36,1.42.58,3,1,4.39.81-1.89,1.68-3.71,2.46-5.62-.47-.8-1.45-1.09-2.84-1a7.1,7.1,0,0,1,.13,1.88C39.89,34.9,39.57,34.91,39.35,35Z"/><path class="cls-1" d="M42.64,35.88,33.47,56.81c-.17.39-.79,1.07-.39,1.42.64.11.75-.77.9-1.1C37.37,49.66,40.7,42,44.06,34.65,43.27,33.76,43,35,42.64,35.88Z"/><path class="cls-1" d="M34.52,0A34.51,34.51,0,0,0,0,34.52c0,13.91,4.85,17.8,31,55.67a4.32,4.32,0,0,0,7.09,0C64.18,52.32,69,48.43,69,34.52A34.51,34.51,0,0,0,34.52,0ZM50.65,23.73c-.33.23-.83.29-1.16.65a6.78,6.78,0,0,0-.78,1.55c-.72,1.66-1.28,3.1-2.13,4.78,1.1,1.3-.27,3-1,3.88a1.87,1.87,0,0,1-.71.13c-1,2-1.92,4.3-2.91,6.52-.52,1.16-1,1.65-.9,3.1a76.94,76.94,0,0,1-.2,7.94,3.69,3.69,0,0,0,2.91,2.59c1,.26,2.6.19,2.71,1.1s-.76,1.15-1.48,1.29c-2,.39-4.34.51-6.53.71-1.13-.81-.73-3.13-.52-4.65a2.34,2.34,0,0,1-.84-1.16c-.8,1.46-1.61,3.47-2.45,5.36-.26.57-.57,1.39-1.1,1.48a1.5,1.5,0,0,1-1.29-.51c-.29-.62.43-1.84.71-2.46.73-1.63,1.25-2.89,2-4.59a10.39,10.39,0,0,0,1-2.26,7.24,7.24,0,0,0-.58-1.93c-.56-2-.76-4.1-1.3-6.14a22.91,22.91,0,0,1-2.45,4.2,30.94,30.94,0,0,1-4.07,3.36C26.2,49.75,25,51,23.65,52.09c-.49,1.7.25,2.47.78,3.75.33.82,1.1,2.63-.13,2.84-.87.15-2.21-.8-2.72-1.23a18.73,18.73,0,0,1-1.87-2.19c-.5-.62-1.72-1.6-1.74-2.33,0-1.41,2.73-2,3.29-3.1a10.68,10.68,0,0,1,1.81-3.55,16.08,16.08,0,0,1,4.07-4.59,20.52,20.52,0,0,1,.77-4.84c-.35-.48-1.37-.41-1.81-1-.65-.94.06-1.92.2-2.71,0-.19,0-.67,0-1a12.47,12.47,0,0,1,.84-2c.23-.72.06-1.63.32-2.46.11-.37.39-.68.52-1,.33-1,.28-1.93.51-2.78.12-.42.37-.88.52-1.29.58-1.6,1-3.46,3.1-3.43a4.43,4.43,0,0,0,.58-1.8c0-.5-.48-.91-.32-1.49-1.52-2.21.35-4.09,2.45-4.33a6.6,6.6,0,0,1,4.33.91c.45.37.82.92,1.29,1.35s1,1,1,1.62c-.08.76-.93,1.07-1.81.77-.69,1.61-1,3.62-2.77,4.14.18.66,1.19.9,1.48,1.68.18.47.15,1.2.33,1.87A27.08,27.08,0,0,1,39.41,29c1.74.32,3,1.26,5,.91.62-1.1,1.12-2.43,1.68-3.69a12.15,12.15,0,0,1,1.81-3.48c.47-.5,2.07-1,1.93-1.88-.08-.53-1.21-.85-1.87-.32s-.36,1.75-1.36,1.94c-1.79.33-1.36-2.16-.77-3.1,1.45-2.32,6-1.68,6.27,1.1A3.41,3.41,0,0,1,50.65,23.73Z"/><path class="cls-1" d="M46.52,19.73a2.1,2.1,0,0,0-.26,2.07c.69-.06.59-.88.84-1.29.61-1.05,3.37-1.39,3.49.32.09,1.43-1.35,1.63-2.07,2.32s-1.17,2.2-1.75,3.49a37.16,37.16,0,0,0-1.55,3.68,1.36,1.36,0,0,0,.59.33c.82-1.56,1.47-3.3,2.19-4.91a9.35,9.35,0,0,1,.78-1.62c.48-.66,1.51-.85,2-1.42a3,3,0,0,0,.39-3C50.33,18.22,47.37,18.49,46.52,19.73Z"/><path class="cls-1" d="M39.22,34.07c0-.44-.09-.81-.13-1.23a19,19,0,0,1-2.91-.19,5.44,5.44,0,0,0,.26,1.42A12.92,12.92,0,0,1,39.22,34.07Z"/><path class="cls-1" d="M42.64,30.84a22.3,22.3,0,0,1-2.45-.71c-.9-.25-1.82-.58-2.52-.84a34.54,34.54,0,0,0-2.85,2.07c1.86,1.24,4.89.08,7.17.77,1.2.37,1.54,1.91,3,1.75a4,4,0,0,0,1.16-2.2c-.67.05-1.19-.77-1.81-.91S43.2,30.92,42.64,30.84Z"/><path class="cls-2" d="M45.87,19.41c-.59.94-1,3.43.77,3.1,1-.19.61-1.34,1.36-1.94s1.79-.21,1.87.32c.14.9-1.46,1.38-1.93,1.88a12.15,12.15,0,0,0-1.81,3.48c-.56,1.26-1.06,2.59-1.68,3.69-2.06.35-3.3-.59-5-.91a27.08,27.08,0,0,0-.77-5.23c-.18-.67-.15-1.4-.33-1.87-.29-.78-1.3-1-1.48-1.68,1.79-.52,2.08-2.53,2.77-4.14.88.3,1.73,0,1.81-.77.06-.58-.39-1.08-1-1.62s-.84-1-1.29-1.35a6.6,6.6,0,0,0-4.33-.91c-2.1.24-4,2.12-2.45,4.33-.16.58.3,1,.32,1.49a4.43,4.43,0,0,1-.58,1.8c-2.11,0-2.52,1.83-3.1,3.43-.15.41-.4.87-.52,1.29-.23.85-.18,1.82-.51,2.78-.13.35-.41.66-.52,1-.26.83-.09,1.74-.32,2.46a12.47,12.47,0,0,0-.84,2c0,.36,0,.84,0,1-.14.79-.85,1.77-.2,2.71.44.63,1.46.56,1.81,1a20.52,20.52,0,0,0-.77,4.84,16.08,16.08,0,0,0-4.07,4.59,10.68,10.68,0,0,0-1.81,3.55C20.7,51,17.93,51.52,18,52.93c0,.73,1.24,1.71,1.74,2.33a18.73,18.73,0,0,0,1.87,2.19c.51.43,1.85,1.38,2.72,1.23,1.23-.21.46-2,.13-2.84-.53-1.28-1.27-2.05-.78-3.75C25,51,26.2,49.75,27.59,48.67a30.94,30.94,0,0,0,4.07-3.36,22.91,22.91,0,0,0,2.45-4.2c.54,2,.74,4.1,1.3,6.14A7.24,7.24,0,0,1,36,49.18a10.39,10.39,0,0,1-1,2.26c-.75,1.7-1.27,3-2,4.59-.28.62-1,1.84-.71,2.46a1.5,1.5,0,0,0,1.29.51c.53-.09.84-.91,1.1-1.48.84-1.89,1.65-3.9,2.45-5.36a2.34,2.34,0,0,0,.84,1.16c-.21,1.52-.61,3.84.52,4.65,2.19-.2,4.48-.32,6.53-.71.72-.14,1.58-.53,1.48-1.29s-1.75-.84-2.71-1.1a3.69,3.69,0,0,1-2.91-2.59,76.94,76.94,0,0,0,.2-7.94c-.07-1.45.38-1.94.9-3.1,1-2.22,2-4.51,2.91-6.52a1.87,1.87,0,0,0,.71-.13c.76-.84,2.13-2.58,1-3.88.85-1.68,1.41-3.12,2.13-4.78a6.78,6.78,0,0,1,.78-1.55c.33-.36.83-.42,1.16-.65a3.41,3.41,0,0,0,1.49-3.22C51.9,17.73,47.32,17.09,45.87,19.41ZM24.1,57.77c-2.57-.77-3.64-3-5.17-4.84.62-1.13,2.08-1.41,2.85-2.39a11,11,0,0,1,1.16,1.29C22,54.25,23.83,55.75,24.1,57.77ZM37.41,22.05a31.52,31.52,0,0,1,1.1,6.66c-.63-.45-.75-1.41-1.23-2,.47-1.92-.51-3.21-.45-5.11A5,5,0,0,1,37.41,22.05Zm.51-3.93c-.51-.3-.25-1.24-.12-1.75.31-.11.52.09.71.13C38.55,17.06,38.1,17.57,37.92,18.12ZM33.47,15.4c.35-.09.5.23.84.13s.33-.76.71-1a5.49,5.49,0,0,1,2.52.13c.74.18,1.66.37,1.16,1.16-.44-.16-1.1-.44-1.62,0-.22.38,0,1.17-.19,1.62-.41.32-1.56.05-1.75.59.41.22,1.29,0,1.82.18.26.08.6.34.6.56,0,.65-1.33,1-2.35.67-.31-.11-.64-.52-.9-.58s-.93.06-1.23,0a7.56,7.56,0,0,0,.45-1.61C33.53,16.61,32.71,15.85,33.47,15.4Zm1.42,20.48c-.12.64.22,1.43-.32,1.87-.71.17-1.24-.38-1.88-.45-.25,0-.56.12-.84.06s-.78-.53-1.22-.71A11.78,11.78,0,0,0,29,36.46c-.42-.1-.68-.53-1.1-.71s-.9-.09-1.16-.45c-.36-.72.29-1.47.39-2.07.07-.41-.05-1,.06-1.49s.46-.7.65-1.16A25,25,0,0,0,28.24,28c.13-.56.53-1.2.71-1.88s.19-1.54.38-2.19c.12-.39.37-.79.52-1.23.36-1,.72-2.42,1.62-2.71a17.75,17.75,0,0,1,2.71-.26c.34.5,1.48,1,1.74,1.61a8.21,8.21,0,0,1,.13,1.88c.07.48.39.75.39,1.22A15.12,15.12,0,0,0,35,22.57c-.67-.66-1.89-1.68-3.1-1.48s-2,2.58-1.81,4.45a12.46,12.46,0,0,0,1,3.81c.54,1.17,1.6,3.62,2.84,2.46a4.27,4.27,0,0,0,1.36.64c-.09.68.2,1,.19,1.62C35.53,34.81,35,35.28,34.89,35.88ZM45.55,56.09c-1.82.78-4.5.68-6.72,1-.73-1.07,0-2.62-.13-4.07A9.81,9.81,0,0,0,40,52.8c.46.34.42.83.71,1.23C41.68,55.36,43.66,55.67,45.55,56.09ZM34,57.13c-.15.33-.26,1.21-.9,1.1-.4-.35.22-1,.39-1.42l9.17-20.93c.38-.87.63-2.12,1.42-1.23C40.7,42,37.37,49.66,34,57.13Zm2.2-24.48a19,19,0,0,0,2.91.19c0,.42.11.79.13,1.23a12.92,12.92,0,0,0-2.78,0A5.44,5.44,0,0,1,36.18,32.65Zm3.75.19c1.39-.12,2.37.17,2.84,1-.78,1.91-1.65,3.73-2.46,5.62-.38-1.41-.6-3-1-4.39.22-.13.54-.14.71-.32A7.1,7.1,0,0,0,39.93,32.84Zm5.1,1c-1.5.16-1.84-1.38-3-1.75-2.28-.69-5.31.47-7.17-.77a34.54,34.54,0,0,1,2.85-2.07c.7.26,1.62.59,2.52.84a22.3,22.3,0,0,0,2.45.71c.56.08,1.18-.19,1.74-.07s1.14,1,1.81.91A4,4,0,0,1,45,33.88ZM50.78,22.7c-.49.57-1.52.76-2,1.42A9.35,9.35,0,0,0,48,25.74c-.72,1.61-1.37,3.35-2.19,4.91a1.36,1.36,0,0,1-.59-.33,37.16,37.16,0,0,1,1.55-3.68c.58-1.29,1-2.76,1.75-3.49s2.16-.89,2.07-2.32c-.12-1.71-2.88-1.37-3.49-.32-.25.41-.15,1.23-.84,1.29a2.1,2.1,0,0,1,.26-2.07c.85-1.24,3.81-1.51,4.65,0A3,3,0,0,1,50.78,22.7Z"/></g></g></svg>