<svg xmlns="http://www.w3.org/2000/svg" viewBox="0 0 185.1 185.1"><defs><style>.cls-1{fill:#fff;}.cls-2{fill:#2b2c83;}</style></defs><g id="Calque_2" data-name="Calque 2"><g id="Calque_1-2" data-name="Calque 1"><circle class="cls-1" cx="92.55" cy="92.55" r="92.55"/><path class="cls-2" d="M103.13,133c.3,3.37-1.39,7,.3,9.46,5.16-.84,11.4-.61,15.61-2.41-4.39-1-9-1.71-11.26-4.8-.68-.92-.59-2.06-1.65-2.85a22.42,22.42,0,0,1-3,.6M63.8,127.1c-1.78,2.27-5.17,2.93-6.6,5.55,3.54,4.21,6,9.47,12,11.26-.63-4.7-4.91-8.19-2.71-13.81a24.07,24.07,0,0,0-2.7-3M112.28,93C105.06,109.52,98,125.58,91,141.66c-.4.9-1.82,2.49-.9,3.3,1.49.26,1.75-1.78,2.1-2.55C100,125,107.76,107.33,115.58,90.18c-1.84-2.07-2.41.83-3.3,2.85m-6-2.7c-.38.42-1.14.46-1.65.75.85,3.29,1.37,6.93,2.25,10.2,1.86-4.39,3.89-8.61,5.7-13.06-1.1-1.85-3.37-2.53-6.6-2.25.07,1.46.62,3,.3,4.36m-8.41-1.51a31.7,31.7,0,0,1,6.46,0c0-1-.22-1.89-.3-2.85a42.38,42.38,0,0,1-6.76-.45,11.91,11.91,0,0,0,.6,3.3m18.46-7.65c-1.3-.29-2.74.33-4,.15a47.08,47.08,0,0,1-5.7-1.65c-2.09-.58-4.22-1.35-5.86-2-2.28,1.52-4.5,3.1-6.6,4.8,4.3,2.88,11.35.19,16.66,1.8,2.78.85,3.58,4.43,7.06,4.05,1.13-1.46,2.46-2.73,2.7-5.1-1.57.11-2.78-1.78-4.21-2.1M99.82,71.71c1.13,1.39,1.4,3.61,2.85,4.66-.1-5.3-1.38-10.72-2.54-15.46a10.7,10.7,0,0,0-1.36-1c-.14,4.41,2.15,7.4,1,11.85M97,63.61c-.21-1.44.22-3.1-.3-4.35-.6-1.47-3.25-2.6-4-3.76-2,.34-4.26-.06-6.3.6S83.4,60,82.56,62.41c-.35,1-.93,2-1.2,2.85-.45,1.51-.45,3.39-.9,5.1s-1.33,3.06-1.65,4.36c-.53,2.17-.23,4.33-.9,6-.43,1.06-1.27,1.81-1.5,2.7s0,2.49-.15,3.45c-.23,1.39-1.73,3.15-.9,4.81.6.85,1.63.59,2.7,1s1.57,1.42,2.55,1.65c1.3.31,2.59,0,3.76.45s1.84,1.46,2.85,1.65c.64.12,1.35-.22,2-.15,1.48.16,2.72,1.45,4.35,1,1.26-1,.47-2.86.75-4.35s1.48-2.49,1.5-4.21c0-1.31-.66-2.17-.45-3.75a9.89,9.89,0,0,1-3.15-1.5c-2.89,2.69-5.35-3-6.6-5.7A29,29,0,0,1,83.16,69c-.33-4.36,1.21-9.86,4.21-10.35,2.8-.47,5.65,1.9,7.2,3.45a33.92,33.92,0,0,1,3.3,4.35c0-1.1-.73-1.73-.9-2.85m27.77,5.85a23.69,23.69,0,0,1,1.8-3.75c1.12-1.54,3.51-2,4.65-3.3a6.84,6.84,0,0,0,.9-6.91c-1.94-3.5-8.81-2.88-10.8,0-.72,1-1.53,3.15-.6,4.81,1.6-.14,1.37-2,2-3,1.43-2.42,7.83-3.21,8.1.75.23,3.35-3.13,3.79-4.8,5.41s-2.71,5.11-4,8.1a85.18,85.18,0,0,0-3.61,8.56,3,3,0,0,0,1.36.75c1.91-3.63,3.42-7.65,5.1-11.41M101,47.7c-.28,1.19-.89,3.38.3,4,.42-1.25,1.46-2.46,1.35-3.75-.42-.1-.9-.55-1.65-.3m-.6-3.9a12.33,12.33,0,0,0-5.85-.3c-.87.47-.66,1.94-1.65,2.25-.79.24-1.13-.52-2-.3-1.76,1,.14,2.81.15,4.35s-.8,2.43-1.05,3.75c.7.13,2-.17,2.85,0,.62.13,1.37,1.09,2.1,1.35,2.36.85,5.53,0,5.47-1.56,0-.52-.81-1.12-1.42-1.29-1.23-.34-3.27.09-4.21-.43.44-1.26,3.12-.61,4.06-1.37.35-1-.08-2.88.45-3.75,1.19-1,2.73-.38,3.76,0,1.16-1.85-1-2.28-2.71-2.7m4.81,3.3c-1.62,3.73-2.3,8.41-6.46,9.6.42,1.54,2.78,2.09,3.45,3.91.42,1.09.34,2.79.76,4.35a62.17,62.17,0,0,1,1.8,12.16c4,.75,6.92,2.92,11.7,2.1,1.44-2.54,2.61-5.65,3.91-8.56s2.28-6.09,4.2-8.1c1.09-1.15,4.82-2.27,4.5-4.35-.18-1.23-2.82-2-4.35-.75-1.74,1.39-.84,4.06-3.15,4.5-4.17.78-3.18-5-1.8-7.21,3.37-5.38,14-3.9,14.56,2.55a8,8,0,0,1-3.46,7.51c-.76.52-1.93.65-2.7,1.5a16.3,16.3,0,0,0-1.8,3.6c-1.69,3.86-3,7.21-5,11.11,2.55,3-.63,7.06-2.4,9-.56.1-.9.41-1.66.31-2.19,4.68-4.45,10-6.75,15.16-1.2,2.68-2.24,3.83-2.1,7.2a181.11,181.11,0,0,1-.45,18.46c.76,3.08,3.25,5.07,6.75,6,2.24.6,6,.44,6.31,2.56.22,1.77-1.78,2.68-3.45,3-4.76.9-10.08,1.18-15.16,1.65-2.63-1.88-1.71-7.27-1.21-10.81a5.28,5.28,0,0,1-1.95-2.7c-1.86,3.4-3.74,8.07-5.7,12.46-.6,1.34-1.32,3.24-2.55,3.45a3.44,3.44,0,0,1-3-1.2c-.68-1.44,1-4.26,1.65-5.7,1.69-3.78,2.9-6.72,4.65-10.66.69-1.56,2.32-3.91,2.4-5.25s-1-3.37-1.35-4.51c-1.29-4.73-1.76-9.52-3-14.26-2,3.48-3.18,6.94-5.7,9.76-2.67,3-6.25,5.3-9.46,7.8s-6.11,5.37-9.16,8c-1.13,3.94.59,5.74,1.81,8.71.78,1.91,2.55,6.11-.3,6.6-2,.35-5.12-1.87-6.31-2.85A40.32,40.32,0,0,1,59,138.05c-1.16-1.43-4-3.71-4-5.4-.1-3.28,6.35-4.58,7.65-7.2.44-2.85,2.61-5.7,4.2-8.26a37.51,37.51,0,0,1,9.46-10.65,47.3,47.3,0,0,1,1.8-11.26c-.82-1.12-3.19-1-4.2-2.4-1.53-2.19.13-4.47.45-6.31.07-.43-.1-1.56,0-2.4.17-1.53,1.4-2.91,2-4.65s.16-3.77.75-5.7c.26-.86.91-1.57,1.2-2.41.77-2.21.66-4.48,1.2-6.45.27-1,.86-2,1.2-3,1.34-3.72,2.31-8,7.21-8,.52-1.35,1.41-2.65,1.35-4.2,0-1.15-1.13-2.09-.75-3.45-3.54-5.13.81-9.51,5.7-10.06,3.52-.39,8,.42,10.06,2.1,1,.86,1.91,2.15,3,3.16,1.34,1.23,2.39,2.41,2.25,3.75-.19,1.77-2.17,2.49-4.2,1.8"/><path class="cls-2" d="M94.27,46.5a9,9,0,0,1,3.9.6c.18,0,.25-.92,0-1.41-.72-1.13-3.92-1.26-3.85.81"/><path class="cls-2" d="M96.45,53c.11,1,1.56,2.33,3.15.36,0-.26-2.58-.81-3.15-.36"/><polygon class="cls-2" points="58.84 30.94 56.34 27.24 50 31.51 48.45 29.21 54.66 25.03 52.27 21.49 46.07 25.66 44.79 23.76 51.07 19.53 48.57 15.83 38.67 22.5 48.87 37.65 58.84 30.94"/><rect class="cls-2" x="58.49" y="19.09" width="6.52" height="3.61" transform="translate(-3.22 26.21) rotate(-23.37)"/><path class="cls-2" d="M69.49,15.28A6.25,6.25,0,0,0,72,16.54c.4.1.85.2,1.34.29l1.42.23,1.23.17.76.09a3.15,3.15,0,0,1,1.14.34,1.15,1.15,0,0,1,.53.78,1.22,1.22,0,0,1-.3,1.12,3.17,3.17,0,0,1-1.61.75,12.19,12.19,0,0,1-1.3.19c-.5,0-1,.06-1.55.06a13,13,0,0,1-1.64-.1,8.74,8.74,0,0,1-1.54-.31v4.12a8.41,8.41,0,0,0,1.88.42,13.91,13.91,0,0,0,1.92.11,14.75,14.75,0,0,0,1.8-.11c.57-.08,1.06-.17,1.48-.26A7.12,7.12,0,0,0,82,21.92a5.11,5.11,0,0,0,.78-4.28,4.53,4.53,0,0,0-1.18-2.3,5.44,5.44,0,0,0-2.33-1.25c-.38-.11-.85-.21-1.39-.32s-1.09-.2-1.62-.29-1-.16-1.42-.21-.68-.09-.8-.12A4.27,4.27,0,0,1,73,12.82a1,1,0,0,1-.54-.75c-.19-.85.39-1.43,1.74-1.73a8,8,0,0,1,1.26-.17,10.94,10.94,0,0,1,1.4,0,13.9,13.9,0,0,1,1.43.16,12,12,0,0,1,1.33.28l.06-4.14a11.7,11.7,0,0,0-3.19-.59,12.39,12.39,0,0,0-3.1.27,9.86,9.86,0,0,0-2.54.93A5.83,5.83,0,0,0,69,8.54a4.55,4.55,0,0,0-.93,1.91,5.17,5.17,0,0,0,0,2.31,4.37,4.37,0,0,0,1.38,2.52"/><polygon class="cls-2" points="88.66 4.13 88.08 22.39 92.45 22.53 92.68 15.3 97.45 15.45 97.22 22.68 101.57 22.82 102.15 4.56 97.8 4.42 97.59 11.17 92.81 11.02 93.03 4.27 88.66 4.13"/><path class="cls-2" d="M120.63,18.47a6.22,6.22,0,0,1-.92,1.88,4.88,4.88,0,0,1-1.29,1.21,3.46,3.46,0,0,1-1.55.5,4.42,4.42,0,0,1-3.21-1,3.76,3.76,0,0,1-1-1.34,4.34,4.34,0,0,1-.33-1.73,6.52,6.52,0,0,1,.34-2.06,6.72,6.72,0,0,1,.91-1.86,4.46,4.46,0,0,1,1.27-1.19,3.61,3.61,0,0,1,1.55-.52,4.49,4.49,0,0,1,3.23,1,3.78,3.78,0,0,1,1,1.32,4.56,4.56,0,0,1,.35,1.73,6.23,6.23,0,0,1-.34,2.08m2.57,4.47a11.05,11.05,0,0,0,2.13-6.63,9.24,9.24,0,0,0-.67-3.37,8.57,8.57,0,0,0-8.87-5.06,8.19,8.19,0,0,0-3.19,1.18,9.06,9.06,0,0,0-2.48,2.35A11.11,11.11,0,0,0,108,18a9.25,9.25,0,0,0,.62,3.37,8.57,8.57,0,0,0,8.9,5.08,8.29,8.29,0,0,0,3.2-1.18,9.26,9.26,0,0,0,2.49-2.35"/><path class="cls-2" d="M136.86,21.44l2.3,1.5a1.22,1.22,0,0,1,.63.92,1.75,1.75,0,0,1-.32,1.1,1.83,1.83,0,0,1-.89.76,1.15,1.15,0,0,1-1.11-.18l-2.3-1.49ZM135.22,29a5.56,5.56,0,0,0,2.23.89,4.75,4.75,0,0,0,2.1-.14,5.34,5.34,0,0,0,1.87-1A7.64,7.64,0,0,0,143,27a7.44,7.44,0,0,0,1-2.14,5,5,0,0,0,.13-2.09,4.53,4.53,0,0,0-.76-1.92,5.68,5.68,0,0,0-1.71-1.62l-6-3.89-10,15.32L129.34,33l3.56-5.49Z"/><path class="cls-2" d="M15.23,56.1,19,54.71a3.33,3.33,0,0,1-.58-1.9,4.16,4.16,0,0,1,.61-2.14,4.59,4.59,0,0,1,1-1.21,3.7,3.7,0,0,1,1.37-.73,4,4,0,0,1,1.69-.07,5.81,5.81,0,0,1,2,.76,6,6,0,0,1,1.63,1.32,4.18,4.18,0,0,1,.8,1.51,3.56,3.56,0,0,1,.06,1.59A4.55,4.55,0,0,1,27,55.39,4.5,4.5,0,0,1,25.52,57a8.16,8.16,0,0,1-1.74.8l1.6,4a9,9,0,0,0,2.95-1.55,9.54,9.54,0,0,0,2.34-2.74,9.18,9.18,0,0,0,1.17-3.21,7.79,7.79,0,0,0-.17-3.16,7.94,7.94,0,0,0-1.49-2.88,10,10,0,0,0-2.84-2.37,10.17,10.17,0,0,0-3.49-1.31,8.34,8.34,0,0,0-3.31.06A7.6,7.6,0,0,0,17.65,46a8.39,8.39,0,0,0-2.22,2.53,9,9,0,0,0-.81,1.82,7.3,7.3,0,0,0-.18,3.86,6.18,6.18,0,0,0,.79,1.87"/><polygon class="cls-2" points="13.23 63.96 25.52 68.27 26.89 64.37 10.62 58.67 7.21 68.39 11.19 69.78 13.23 63.96"/><rect class="cls-2" x="12.38" y="67.27" width="4.12" height="17.24" transform="translate(-62.8 74.52) rotate(-78.21)"/><path class="cls-2" d="M5.71,94.32a6.18,6.18,0,0,0,1.56,1.29l2.74-3a3.27,3.27,0,0,1-1.38-1.42A4.11,4.11,0,0,1,8.18,89a4.38,4.38,0,0,1,.35-1.53,3.66,3.66,0,0,1,.88-1.28,3.78,3.78,0,0,1,1.47-.84A5.6,5.6,0,0,1,13,85.13a5.92,5.92,0,0,1,2.06.43,4.16,4.16,0,0,1,1.41,1,3.8,3.8,0,0,1,.79,1.38,4.71,4.71,0,0,1,.2,1.64,4.37,4.37,0,0,1-.6,2.13,8.5,8.5,0,0,1-1.18,1.52L18.91,96a9.17,9.17,0,0,0,1.91-2.74,9.42,9.42,0,0,0,.81-3.51,8.94,8.94,0,0,0-.44-3.39,7.63,7.63,0,0,0-1.6-2.73,7.82,7.82,0,0,0-2.65-1.86,10,10,0,0,0-3.61-.8,10.29,10.29,0,0,0-3.7.44A8.17,8.17,0,0,0,6.72,83a7.54,7.54,0,0,0-1.94,2.53A8.38,8.38,0,0,0,4,88.82a9.43,9.43,0,0,0,.12,2,7.63,7.63,0,0,0,.57,1.87,6.93,6.93,0,0,0,1,1.64"/><polygon class="cls-2" points="4.26 100.24 4.92 104.31 10.59 103.4 13.44 105.06 5.72 109.32 6.46 113.9 17.5 107.45 23.44 110.92 22.73 106.49 15.93 102.54 21.94 101.58 21.28 97.5 4.26 100.24"/><path class="cls-2" d="M17.87,122.29a4.68,4.68,0,0,1-1-.55,3.11,3.11,0,0,1,.53-.69,1.92,1.92,0,0,1,.65-.42,1.06,1.06,0,0,1,.84-.07.91.91,0,0,1,.49.54.81.81,0,0,1,0,.66.93.93,0,0,1-.58.48,1.22,1.22,0,0,1-1,.05m-4.61,2.81a1.42,1.42,0,0,1-.56-.36,2.09,2.09,0,0,1-.38-.64,1.47,1.47,0,0,1-.11-1.08,1.28,1.28,0,0,1,.77-.67,1.44,1.44,0,0,1,.8-.13,2.4,2.4,0,0,1,.74.29Zm6.62-1a3,3,0,0,0,1.73-1.5,2.85,2.85,0,0,0-.11-2.29A2.92,2.92,0,0,0,20,118.54a3,3,0,0,0-2.34.13,3.75,3.75,0,0,0-1.27.81,6.14,6.14,0,0,0-.91,1.23,5.18,5.18,0,0,0-1.72-.69,3.51,3.51,0,0,0-2,.27,3.51,3.51,0,0,0-1.24.81,2.62,2.62,0,0,0-.63,1.07,3.12,3.12,0,0,0-.08,1.26,6,6,0,0,0,.37,1.37,4.94,4.94,0,0,0,1,1.59,3.65,3.65,0,0,0,1.15.79l-.54,1.11,1,2.45,1.56-3.42,3.4-.19L16.81,125l-1.5.11.74-1.6a8.57,8.57,0,0,0,.93.5,4.37,4.37,0,0,0,.91.29,3.34,3.34,0,0,0,.95,0,3.56,3.56,0,0,0,1-.27"/><path class="cls-2" d="M31.21,135.77a4.4,4.4,0,0,1,.82,2.06,8.77,8.77,0,0,1,0,1.92l4.31.26a9.15,9.15,0,0,0-.15-3.33,9.68,9.68,0,0,0-1.49-3.29A9,9,0,0,0,32.28,131a7.58,7.58,0,0,0-6.17-1.06,10.14,10.14,0,0,0-3.34,1.55,10.4,10.4,0,0,0-2.68,2.6,8.18,8.18,0,0,0-1.35,3,7.62,7.62,0,0,0,0,3.19,8.51,8.51,0,0,0,1.35,3.08,9,9,0,0,0,1.3,1.51A8,8,0,0,0,23,146a7.41,7.41,0,0,0,1.83.66,6,6,0,0,0,2,.08l.37-4a3.39,3.39,0,0,1-2-.28A4.18,4.18,0,0,1,23.55,141a4.42,4.42,0,0,1-.66-1.43,3.72,3.72,0,0,1-.07-1.56,3.76,3.76,0,0,1,.65-1.55A5.61,5.61,0,0,1,25,135a5.81,5.81,0,0,1,1.89-.91,4,4,0,0,1,1.71-.09,3.82,3.82,0,0,1,1.47.62,4.62,4.62,0,0,1,1.15,1.18"/><path class="cls-2" d="M42.65,152.17a5.94,5.94,0,0,1-1.11,1.64A6.18,6.18,0,0,1,40,155.06a4.32,4.32,0,0,1-1.58.52,3.41,3.41,0,0,1-1.52-.17,4,4,0,0,1-1.37-.85,3.77,3.77,0,0,1-1-1.33,3.62,3.62,0,0,1-.3-1.52,4.28,4.28,0,0,1,.4-1.62,6.55,6.55,0,0,1,1.11-1.63,6.38,6.38,0,0,1,1.51-1.23,4.21,4.21,0,0,1,1.57-.52,3.33,3.33,0,0,1,1.53.17,3.81,3.81,0,0,1,1.39.84,4.17,4.17,0,0,1,1,1.32,3.39,3.39,0,0,1,.29,1.51,4.24,4.24,0,0,1-.38,1.62m1.93,4.43a10.36,10.36,0,0,0,1.83-2.79,8.57,8.57,0,0,0,.77-3.15,7.55,7.55,0,0,0-2.58-6.06,7.64,7.64,0,0,0-3-1.77,7.75,7.75,0,0,0-3.2-.25,8.48,8.48,0,0,0-3,1,10.69,10.69,0,0,0-2.62,2.07,10.2,10.2,0,0,0-1.82,2.75,8.6,8.6,0,0,0-.79,3.13,7.64,7.64,0,0,0,.51,3.18,7.55,7.55,0,0,0,2,2.9,7.71,7.71,0,0,0,3.05,1.79,7.79,7.79,0,0,0,3.21.25,8.34,8.34,0,0,0,3.06-1,10.16,10.16,0,0,0,2.61-2.05"/><polygon class="cls-2" points="51.83 150.88 42.91 165.63 51.72 170.96 53.9 167.35 48.61 164.15 55.36 153.01 51.83 150.88"/><polygon class="cls-2" points="65.66 158.24 61.83 156.7 55.42 172.7 64.98 176.53 66.55 172.62 60.81 170.32 65.66 158.24"/><polygon class="cls-2" points="69.03 177.74 80.12 180.06 80.99 175.93 73.93 174.46 74.46 171.9 81.37 173.34 82.19 169.39 75.29 167.95 75.73 165.83 82.72 167.29 83.59 163.17 72.56 160.87 69.03 177.74"/><path class="cls-2" d="M90.1,168.59a3.7,3.7,0,0,1,1.36-.84,4.6,4.6,0,0,1,1.63-.25,4.36,4.36,0,0,1,2.15.53,7.82,7.82,0,0,1,1.56,1.13l2.71-3.36A9.1,9.1,0,0,0,96.72,164a9.62,9.62,0,0,0-3.54-.7,9,9,0,0,0-3.37.56,7.55,7.55,0,0,0-2.67,1.69,7.91,7.91,0,0,0-1.79,2.71,11.19,11.19,0,0,0-.11,7.32,8.23,8.23,0,0,0,1.68,2.86,7.53,7.53,0,0,0,2.59,1.85,8.32,8.32,0,0,0,3.29.7,9.39,9.39,0,0,0,2-.18,7.87,7.87,0,0,0,1.84-.64,7.06,7.06,0,0,0,1.61-1.1,6,6,0,0,0,1.24-1.6l-3.07-2.64A3.36,3.36,0,0,1,95,176.24a4.06,4.06,0,0,1-2.17.51,4.27,4.27,0,0,1-1.55-.29,3.75,3.75,0,0,1-1.31-.85,4,4,0,0,1-.89-1.43,6,6,0,0,1-.3-2.09,5.89,5.89,0,0,1,.36-2.07,4.06,4.06,0,0,1,.92-1.43"/><polygon class="cls-2" points="112.26 161.03 99.89 163.4 100.68 167.54 104.82 166.75 107.27 179.54 111.34 178.76 108.89 165.97 113.05 165.17 112.26 161.03"/><rect class="cls-2" x="121.93" y="164.73" width="6.15" height="2.75" transform="translate(-56.39 64.55) rotate(-23.8)"/><polygon class="cls-2" points="141.75 160.68 134.07 150.16 130.74 152.59 140.9 166.51 149.22 160.45 146.74 157.04 141.75 160.68"/><rect class="cls-2" x="145.45" y="141.58" width="4.12" height="17.24" transform="translate(-62.88 142.8) rotate(-43.5)"/><polygon class="cls-2" points="151.18 132.91 155.88 141.07 146.84 138.52 144.09 142.07 162.66 146.6 162.87 146.33 153.82 129.48 151.18 132.91"/><path class="cls-2" d="M163.28,125.83l-1.17,2.39L159.58,127l1.16-2.39a1.21,1.21,0,0,1,.78-.7,1.58,1.58,0,0,1,1.06.17,1.49,1.49,0,0,1,.77.73,1.15,1.15,0,0,1-.07,1m2.7-4.13a6.1,6.1,0,0,0-2.07-1.59,6.52,6.52,0,0,0-1.86-.6,4.54,4.54,0,0,0-1.84.07,4.18,4.18,0,0,0-1.65.84,5,5,0,0,0-1.3,1.71L154,128.85l15.5,7.55,1.8-3.7-6.39-3.12.83-1.72,7.64.58,2-4.13L166.9,124a3.94,3.94,0,0,0-.92-2.3"/><path class="cls-2" d="M173.69,111.39l-.72,2.86-3.14-2.32Zm-12.34-1.49,15,11.81,1.05-4.15-1.92-1.41,1.3-5.18,2.37-.34,1.09-4.34-18.84,3.28Z"/><rect class="cls-2" x="169.99" y="91.12" width="4.12" height="17.24" transform="translate(56.9 261.89) rotate(-84.72)"/><path class="cls-2" d="M181.12,87.74a6.69,6.69,0,0,0-1.63-4.51,4.79,4.79,0,0,0-3.85-1.4,4.16,4.16,0,0,0-2.33.72,5.1,5.1,0,0,0-1.53,2c-.16.34-.34.75-.52,1.24s-.36,1-.53,1.46-.31.91-.42,1.28-.2.62-.24.72a3.81,3.81,0,0,1-.48,1,1,1,0,0,1-.78.38c-.83,0-1.27-.59-1.34-1.9a7,7,0,0,1,.05-1.19,8.66,8.66,0,0,1,.23-1.3c.1-.44.23-.88.37-1.3a11.1,11.1,0,0,1,.49-1.2L164.76,83a11.16,11.16,0,0,0-1.06,2.88,12,12,0,0,0-.24,2.92,9.43,9.43,0,0,0,.45,2.51,5.72,5.72,0,0,0,1.06,1.9,4.52,4.52,0,0,0,1.63,1.18,5,5,0,0,0,2.16.33,4.17,4.17,0,0,0,2.56-.88,6,6,0,0,0,1.58-2.16q.24-.54.48-1.2c.16-.44.31-.87.45-1.28s.25-.79.35-1.12l.2-.69a3,3,0,0,1,.5-1,1.07,1.07,0,0,1,.81-.37,1.14,1.14,0,0,1,1,.46,2.83,2.83,0,0,1,.44,1.62,8.92,8.92,0,0,1,0,1.24c0,.47-.1.95-.19,1.45a13.71,13.71,0,0,1-.35,1.51,9.67,9.67,0,0,1-.53,1.38l3.82.67a8.24,8.24,0,0,0,.69-1.68,15.08,15.08,0,0,0,.42-1.77,12.73,12.73,0,0,0,.17-1.69c0-.54,0-1,0-1.42"/><path class="cls-2" d="M173.47,69a4.08,4.08,0,0,1,.7,1.45,4,4,0,0,1,.1,1.64,3.49,3.49,0,0,1-.57,1.44,4.18,4.18,0,0,1-1.21,1.15,6.11,6.11,0,0,1-1.81.78,5.88,5.88,0,0,1-1.94.22,3.89,3.89,0,0,1-1.59-.4,3.44,3.44,0,0,1-1.21-1,4.06,4.06,0,0,1-.71-1.46,4,4,0,0,1-.11-1.63,3.49,3.49,0,0,1,.56-1.43,4.16,4.16,0,0,1,1.2-1.16,5.85,5.85,0,0,1,1.82-.79,6,6,0,0,1,2-.22,4.34,4.34,0,0,1,1.62.41,3.37,3.37,0,0,1,1.19,1m-5.84-5.13a10.27,10.27,0,0,0-3,1.36,8.48,8.48,0,0,0-2.34,2.24,7.74,7.74,0,0,0-1.26,3,7.83,7.83,0,0,0,.17,3.54,7.65,7.65,0,0,0,1.61,3.12A7.56,7.56,0,0,0,165.32,79a8.64,8.64,0,0,0,3.14.78,10.56,10.56,0,0,0,6.33-1.68,8.46,8.46,0,0,0,2.35-2.22,7.54,7.54,0,0,0,1.28-3,7.73,7.73,0,0,0-.17-3.55,7.59,7.59,0,0,0-1.61-3.15,7.77,7.77,0,0,0-2.57-1.93,8.5,8.5,0,0,0-3.13-.79,10.57,10.57,0,0,0-3.31.34"/><polygon class="cls-2" points="153.91 55.99 161.4 51.97 158.37 64.77 158.5 65.01 173.89 56.76 172.01 53.26 164.51 57.29 167.57 44.5 167.43 44.24 152.04 52.49 153.91 55.99"/><polygon class="cls-2" points="33.67 38.64 34.99 41.77 35.42 38.4 38.8 38.11 35.73 36.66 36.5 33.35 34.17 35.83 31.26 34.07 32.9 37.05 30.33 39.28 33.67 38.64"/><polygon class="cls-2" points="150.34 38.4 150.77 41.77 152.09 38.64 155.43 39.28 152.86 37.05 154.5 34.07 151.59 35.83 149.26 33.35 150.03 36.66 146.95 38.11 150.34 38.4"/></g></g></svg>