<svg xmlns="http://www.w3.org/2000/svg" viewBox="0 0 177.17 176.84"><defs><style>.cls-1{fill:#fff;}</style></defs><g id="Calque_2" data-name="Calque 2"><g id="Calque_1-2" data-name="Calque 1"><path class="cls-1" d="M99.16,128.82c.31,3.37-1.38,7,.3,9.46,5.17-.84,11.4-.61,15.61-2.41-4.38-1-9-1.71-11.25-4.8-.68-.92-.6-2.06-1.65-2.85a22.26,22.26,0,0,1-3,.6M59.84,123c-1.78,2.27-5.17,2.93-6.6,5.55,3.54,4.21,6,9.47,12,11.26-.62-4.7-4.91-8.19-2.7-13.81a24.07,24.07,0,0,0-2.7-3M108.32,88.9C101.1,105.39,94.05,121.45,87,137.53c-.4.9-1.82,2.49-.91,3.3,1.5.26,1.76-1.78,2.11-2.55,7.85-17.37,15.59-35.08,23.41-52.23-1.85-2.07-2.42.83-3.3,2.85m-6-2.7c-.38.42-1.14.46-1.65.75.85,3.29,1.36,6.93,2.25,10.2,1.86-4.39,3.89-8.61,5.7-13.06-1.1-1.85-3.37-2.53-6.6-2.25.06,1.46.62,3,.3,4.36m-8.41-1.51a31.7,31.7,0,0,1,6.46,0c0-1-.22-1.89-.3-2.85a42.3,42.3,0,0,1-6.76-.45,11.91,11.91,0,0,0,.6,3.3M112.37,77c-1.3-.29-2.74.33-4.05.15a47.08,47.08,0,0,1-5.7-1.65c-2.09-.58-4.22-1.35-5.86-2-2.28,1.52-4.5,3.1-6.6,4.8,4.3,2.88,11.35.19,16.66,1.8,2.78.85,3.57,4.43,7.05,4,1.14-1.46,2.47-2.73,2.7-5.1-1.57.11-2.77-1.78-4.2-2.1M95.86,67.58C97,69,97.26,71.2,98.71,72.24c-.1-5.3-1.38-10.72-2.55-15.46a9.94,9.94,0,0,0-1.35-1.05c-.14,4.42,2.15,7.4,1,11.85M93,59.48c-.21-1.44.22-3.09-.3-4.35-.61-1.47-3.25-2.59-4-3.76-2,.34-4.26,0-6.31.61s-2.91,3.91-3.75,6.3c-.35,1-.93,1.95-1.2,2.85-.45,1.51-.45,3.39-.9,5.1s-1.34,3.06-1.65,4.36c-.53,2.17-.23,4.33-.9,6-.43,1.06-1.27,1.81-1.5,2.7a33.91,33.91,0,0,0-.15,3.45c-.23,1.39-1.73,3.15-.9,4.81.6.85,1.63.59,2.7,1s1.57,1.42,2.55,1.65c1.3.31,2.59,0,3.75.45s1.85,1.46,2.85,1.65c.65.12,1.36-.22,2-.15,1.48.16,2.72,1.45,4.35,1,1.26-1,.47-2.86.75-4.35s1.48-2.49,1.5-4.21c0-1.31-.67-2.17-.45-3.75a9.68,9.68,0,0,1-3.15-1.5c-2.89,2.69-5.35-3-6.61-5.7a29,29,0,0,1-2.4-8.86c-.33-4.36,1.2-9.86,4.2-10.35,2.81-.47,5.66,1.9,7.21,3.45a34.86,34.86,0,0,1,3.3,4.35c0-1.1-.73-1.73-.9-2.85m27.77,5.85a22.07,22.07,0,0,1,1.8-3.75c1.12-1.54,3.51-2,4.65-3.3a6.84,6.84,0,0,0,.9-6.91c-1.94-3.5-8.81-2.88-10.8,0-.73,1.05-1.54,3.15-.61,4.81,1.61-.14,1.38-2,2-3,1.43-2.42,7.83-3.21,8.1.76.23,3.34-3.13,3.78-4.8,5.4s-2.71,5.11-4.06,8.1a84.92,84.92,0,0,0-3.6,8.56,3,3,0,0,0,1.35.75c1.92-3.63,3.43-7.65,5.11-11.41M97.06,43.57c-.29,1.19-.9,3.38.3,4,.42-1.25,1.46-2.45,1.35-3.75-.42-.1-.91-.55-1.65-.3m-.6-3.9a12.46,12.46,0,0,0-5.85-.3c-.87.47-.66,2-1.65,2.25-.79.24-1.13-.52-1.95-.3-1.76,1,.14,2.81.15,4.35s-.81,2.43-1.06,3.75c.71.13,2-.17,2.86,0,.62.13,1.37,1.09,2.1,1.35,2.36.85,5.53-.05,5.47-1.56,0-.51-.81-1.12-1.42-1.29-1.23-.34-3.27.09-4.21-.43.44-1.26,3.12-.61,4.06-1.37.35-1-.08-2.88.45-3.75,1.19-1,2.73-.38,3.75,0,1.16-1.85-1-2.28-2.7-2.7m4.81,3.3c-1.62,3.73-2.3,8.41-6.46,9.61.42,1.53,2.77,2.09,3.45,3.9.41,1.09.34,2.79.75,4.35A61.42,61.42,0,0,1,100.81,73c4,.75,6.93,2.92,11.71,2.1,1.44-2.53,2.61-5.65,3.9-8.56s2.28-6.09,4.21-8.1c1.09-1.14,4.82-2.27,4.5-4.35-.19-1.23-2.82-2-4.35-.75-1.74,1.39-.84,4.06-3.16,4.5-4.16.78-3.17-5-1.8-7.2,3.38-5.39,14-3.91,14.56,2.54a8,8,0,0,1-3.45,7.51c-.76.52-1.93.66-2.7,1.5a16.3,16.3,0,0,0-1.8,3.6c-1.69,3.86-3,7.21-5,11.11,2.55,3-.63,7.07-2.41,9-.55.09-.89.4-1.65.3-2.19,4.68-4.45,10-6.75,15.16-1.2,2.68-2.24,3.83-2.1,7.2a181.11,181.11,0,0,1-.45,18.46c.76,3.08,3.25,5.07,6.75,6,2.24.6,6,.45,6.3,2.56.23,1.77-1.77,2.68-3.45,3-4.75.9-10.07,1.18-15.16,1.65-2.62-1.88-1.71-7.27-1.2-10.81a5.24,5.24,0,0,1-2-2.7c-1.86,3.4-3.74,8.07-5.7,12.46-.6,1.34-1.32,3.24-2.55,3.45a3.44,3.44,0,0,1-3-1.2c-.69-1.44,1-4.26,1.65-5.7,1.69-3.78,2.9-6.72,4.65-10.66.69-1.56,2.32-3.91,2.4-5.25s-1-3.36-1.35-4.51c-1.29-4.73-1.76-9.52-3-14.26-2,3.48-3.18,6.94-5.71,9.76s-6.24,5.3-9.45,7.8-6.11,5.37-9.16,8c-1.13,3.94.59,5.74,1.8,8.71.79,1.91,2.56,6.11-.3,6.6-2,.35-5.11-1.87-6.3-2.85a40.87,40.87,0,0,1-4.35-5.1c-1.17-1.44-4-3.72-4-5.41-.1-3.28,6.35-4.58,7.65-7.2.44-2.85,2.61-5.7,4.2-8.26a37.51,37.51,0,0,1,9.46-10.65,47.3,47.3,0,0,1,1.8-11.26c-.82-1.12-3.2-1-4.2-2.4-1.53-2.19.13-4.47.45-6.31.07-.43-.1-1.56,0-2.4.17-1.53,1.4-2.91,2-4.65s.15-3.77.75-5.7c.26-.86.91-1.57,1.2-2.4.77-2.22.66-4.48,1.2-6.46.27-1,.86-2,1.2-3,1.34-3.72,2.3-8,7.2-8,.53-1.35,1.41-2.65,1.36-4.2,0-1.14-1.13-2.09-.76-3.45-3.53-5.13.82-9.51,5.71-10.06,3.52-.39,8,.42,10.06,2.1,1,.86,1.91,2.15,3,3.16,1.34,1.23,2.39,2.41,2.25,3.75-.19,1.78-2.17,2.49-4.2,1.8"/><path class="cls-1" d="M90.31,42.37a9,9,0,0,1,3.9.6c.18,0,.25-.92,0-1.41-.72-1.13-3.93-1.26-3.85.81"/><path class="cls-1" d="M92.49,48.84c.11,1,1.56,2.34,3.14.36,0-.26-2.57-.81-3.14-.36"/><polygon class="cls-1" points="54.88 26.81 52.38 23.11 46.04 27.38 44.49 25.08 50.7 20.9 48.31 17.36 42.11 21.53 40.83 19.63 47.11 15.4 44.61 11.7 34.71 18.37 44.91 33.52 54.88 26.81"/><rect class="cls-1" x="54.53" y="14.96" width="6.52" height="3.61" transform="translate(-1.91 24.3) rotate(-23.37)"/><path class="cls-1" d="M65.53,11.15a6.25,6.25,0,0,0,2.54,1.26c.4.1.85.2,1.34.29l1.42.23c.46.07.86.13,1.23.17l.76.09a3.15,3.15,0,0,1,1.14.34,1.15,1.15,0,0,1,.53.78,1.22,1.22,0,0,1-.3,1.12,3.17,3.17,0,0,1-1.61.75,12.19,12.19,0,0,1-1.3.19c-.5,0-1,.06-1.55.06a13,13,0,0,1-1.64-.1A8.74,8.74,0,0,1,66.55,16v4.12a8.41,8.41,0,0,0,1.88.42,13.91,13.91,0,0,0,1.92.11,14.75,14.75,0,0,0,1.8-.11c.57-.08,1.06-.17,1.48-.26A7.12,7.12,0,0,0,78,17.79a5.11,5.11,0,0,0,.78-4.28,4.53,4.53,0,0,0-1.18-2.3A5.44,5.44,0,0,0,75.31,10c-.39-.11-.85-.21-1.39-.32s-1.09-.2-1.62-.29-1-.16-1.42-.21-.68-.09-.8-.12A4.27,4.27,0,0,1,69,8.69a1,1,0,0,1-.54-.75c-.19-.85.39-1.43,1.74-1.73A8,8,0,0,1,71.45,6a10.94,10.94,0,0,1,1.4,0,13.9,13.9,0,0,1,1.43.16,12,12,0,0,1,1.33.28l.06-4.14a11.7,11.7,0,0,0-3.19-.59,12.35,12.35,0,0,0-3.1.27A9.86,9.86,0,0,0,66.84,3,5.83,5.83,0,0,0,65,4.41a4.55,4.55,0,0,0-.93,1.91,5.17,5.17,0,0,0,0,2.31,4.37,4.37,0,0,0,1.38,2.52"/><polygon class="cls-1" points="84.7 0 84.12 18.26 88.48 18.4 88.72 11.17 93.49 11.32 93.26 18.55 97.61 18.69 98.18 0.43 93.84 0.29 93.62 7.04 88.85 6.89 89.06 0.14 84.7 0"/><path class="cls-1" d="M116.67,14.34a6.23,6.23,0,0,1-.93,1.88,4.45,4.45,0,0,1-1.29,1.21,3.52,3.52,0,0,1-1.54.51,4.34,4.34,0,0,1-1.69-.21,4.11,4.11,0,0,1-1.52-.85,3.76,3.76,0,0,1-1-1.34,4.52,4.52,0,0,1-.34-1.73,6.85,6.85,0,0,1,.35-2.06,6,6,0,0,1,.91-1.85,4.36,4.36,0,0,1,1.27-1.2,3.57,3.57,0,0,1,1.55-.52,4.53,4.53,0,0,1,3.23,1,3.73,3.73,0,0,1,1,1.33,4.51,4.51,0,0,1,.35,1.72,6.45,6.45,0,0,1-.34,2.08m2.57,4.47a10.81,10.81,0,0,0,1.59-3.14,10.64,10.64,0,0,0,.53-3.49,9,9,0,0,0-.66-3.37A8.25,8.25,0,0,0,118.79,6a8.08,8.08,0,0,0-3.26-1.87,8,8,0,0,0-6.89.81,9.07,9.07,0,0,0-2.48,2.35,10.65,10.65,0,0,0-1.6,3.15A11.29,11.29,0,0,0,104,13.9a9.42,9.42,0,0,0,.63,3.36,8.26,8.26,0,0,0,1.9,2.83,8.92,8.92,0,0,0,7,2.25,8.34,8.34,0,0,0,3.21-1.18,9.26,9.26,0,0,0,2.49-2.35"/><path class="cls-1" d="M132.89,17.31l2.31,1.5a1.23,1.23,0,0,1,.62.92,1.68,1.68,0,0,1-.31,1.1,1.83,1.83,0,0,1-.89.76,1.15,1.15,0,0,1-1.11-.18l-2.31-1.49Zm-1.63,7.6a5.42,5.42,0,0,0,2.23.89,4.75,4.75,0,0,0,2.1-.14,5.27,5.27,0,0,0,1.87-1A7.64,7.64,0,0,0,139,22.85a7.32,7.32,0,0,0,1-2.14,5.16,5.16,0,0,0,.13-2.09,4.64,4.64,0,0,0-.76-1.92,5.81,5.81,0,0,0-1.71-1.62l-6-3.89-10,15.32,3.66,2.38,3.57-5.49Z"/><path class="cls-1" d="M11.27,52l3.8-1.39a3.38,3.38,0,0,1-.57-1.9,4.16,4.16,0,0,1,.61-2.14,4.41,4.41,0,0,1,1-1.21,3.54,3.54,0,0,1,1.37-.72,3.93,3.93,0,0,1,1.69-.08,5.81,5.81,0,0,1,2,.76,6,6,0,0,1,1.63,1.32,4.18,4.18,0,0,1,.8,1.51,3.56,3.56,0,0,1,.06,1.59,4.55,4.55,0,0,1-.57,1.55,4.5,4.5,0,0,1-1.52,1.62,8.22,8.22,0,0,1-1.75.8l1.61,4a9.1,9.1,0,0,0,2.95-1.55,9.54,9.54,0,0,0,2.34-2.74,9,9,0,0,0,1.16-3.21A7.62,7.62,0,0,0,27.71,47a8,8,0,0,0-1.5-2.88,10,10,0,0,0-2.83-2.36,10.07,10.07,0,0,0-3.49-1.32,8.34,8.34,0,0,0-3.31.06,7.6,7.6,0,0,0-2.89,1.36,8.39,8.39,0,0,0-2.22,2.53,9,9,0,0,0-.81,1.82,7.46,7.46,0,0,0-.35,1.92,7,7,0,0,0,.17,1.94A6.18,6.18,0,0,0,11.27,52"/><polygon class="cls-1" points="9.27 59.83 21.56 64.14 22.92 60.24 6.66 54.54 3.25 64.26 7.23 65.66 9.27 59.83"/><rect class="cls-1" x="8.42" y="63.15" width="4.12" height="17.24" transform="translate(-61.91 67.36) rotate(-78.21)"/><path class="cls-1" d="M1.75,90.19a6.18,6.18,0,0,0,1.56,1.29l2.74-3a3.37,3.37,0,0,1-1.39-1.43,4.19,4.19,0,0,1-.44-2.18,4.44,4.44,0,0,1,.35-1.54,3.66,3.66,0,0,1,.88-1.28,4.09,4.09,0,0,1,1.46-.84A5.68,5.68,0,0,1,9,81a5.92,5.92,0,0,1,2.06.43,4,4,0,0,1,1.4,1,3.53,3.53,0,0,1,.79,1.38,4.71,4.71,0,0,1,.21,1.64,4.48,4.48,0,0,1-.61,2.13,8.07,8.07,0,0,1-1.18,1.52L15,91.9a9.17,9.17,0,0,0,1.91-2.74,9.42,9.42,0,0,0,.81-3.51,9.14,9.14,0,0,0-.44-3.39A7.52,7.52,0,0,0,13,77.67a10.12,10.12,0,0,0-3.61-.8,10.35,10.35,0,0,0-3.71.44,8.35,8.35,0,0,0-2.91,1.58A7.81,7.81,0,0,0,.81,81.42,8.6,8.6,0,0,0,0,84.69a9.43,9.43,0,0,0,.12,2A7.63,7.63,0,0,0,.7,88.55a6.93,6.93,0,0,0,1.05,1.64"/><polygon class="cls-1" points="0.3 96.11 0.96 100.18 6.63 99.27 9.48 100.94 1.76 105.19 2.5 109.77 13.53 103.32 19.48 106.79 18.77 102.36 11.97 98.41 17.98 97.45 17.32 93.38 0.3 96.11"/><path class="cls-1" d="M13.9,118.17a4.72,4.72,0,0,1-1-.56,3.11,3.11,0,0,1,.53-.69,2.08,2.08,0,0,1,.65-.42,1.11,1.11,0,0,1,.84-.07.91.91,0,0,1,.49.54.81.81,0,0,1,0,.66,1,1,0,0,1-.58.49,1.33,1.33,0,0,1-1,0M9.3,121a1.42,1.42,0,0,1-.56-.36,2.09,2.09,0,0,1-.38-.64,1.47,1.47,0,0,1-.11-1.08,1.28,1.28,0,0,1,.77-.67,1.44,1.44,0,0,1,.8-.13,2.52,2.52,0,0,1,.73.29Zm6.62-1a3,3,0,0,0,1.72-1.5,2.8,2.8,0,0,0-.1-2.29A2.92,2.92,0,0,0,16,114.41a3,3,0,0,0-2.34.13,3.75,3.75,0,0,0-1.27.81,5.78,5.78,0,0,0-.91,1.23,5.18,5.18,0,0,0-1.72-.69,3.51,3.51,0,0,0-2,.27,3.66,3.66,0,0,0-1.25.81A2.71,2.71,0,0,0,5.87,118a3.15,3.15,0,0,0-.08,1.27,6,6,0,0,0,.37,1.36,4.94,4.94,0,0,0,1,1.59,3.65,3.65,0,0,0,1.15.79l-.54,1.11,1,2.46,1.56-3.43,3.4-.19-.88-2.14-1.5.12.74-1.61a8.57,8.57,0,0,0,.93.5,4.37,4.37,0,0,0,.91.29,3,3,0,0,0,1,0,3.56,3.56,0,0,0,1-.27"/><path class="cls-1" d="M27.25,131.64a4.4,4.4,0,0,1,.82,2.06,8.17,8.17,0,0,1,0,1.92l4.31.26a9.14,9.14,0,0,0-.14-3.33,9.68,9.68,0,0,0-1.49-3.29,9,9,0,0,0-2.41-2.42,7.58,7.58,0,0,0-6.17-1.06,10.28,10.28,0,0,0-3.35,1.55,10.73,10.73,0,0,0-2.68,2.6,8.32,8.32,0,0,0-1.34,3,7.62,7.62,0,0,0,0,3.19,8.34,8.34,0,0,0,1.35,3.08,9,9,0,0,0,1.3,1.51A7.71,7.71,0,0,0,19,141.88a7.41,7.41,0,0,0,1.83.66,6,6,0,0,0,2,.08l.36-4a3.37,3.37,0,0,1-2-.28,4.18,4.18,0,0,1-1.68-1.47,4.42,4.42,0,0,1-.66-1.43,3.73,3.73,0,0,1-.08-1.56,3.93,3.93,0,0,1,.66-1.55A5.47,5.47,0,0,1,21,130.84a5.63,5.63,0,0,1,1.89-.91,4,4,0,0,1,1.71-.09,3.71,3.71,0,0,1,1.46.62,4.65,4.65,0,0,1,1.16,1.18"/><path class="cls-1" d="M38.69,148A6.77,6.77,0,0,1,36,150.93a4.32,4.32,0,0,1-1.58.52,3.45,3.45,0,0,1-1.53-.17,4,4,0,0,1-1.36-.85,3.66,3.66,0,0,1-1.27-2.85,4.28,4.28,0,0,1,.4-1.62,6.74,6.74,0,0,1,1.11-1.63,6.19,6.19,0,0,1,1.51-1.23,4.15,4.15,0,0,1,1.57-.52,3.47,3.47,0,0,1,1.53.17,4,4,0,0,1,1.39.84,4.17,4.17,0,0,1,1,1.32,3.39,3.39,0,0,1,.29,1.51,4.24,4.24,0,0,1-.38,1.62m1.93,4.43a10.36,10.36,0,0,0,1.83-2.79,8.37,8.37,0,0,0,.76-3.15,7.5,7.5,0,0,0-2.57-6.06,7.6,7.6,0,0,0-3-1.77,7.7,7.7,0,0,0-3.19-.25,8.48,8.48,0,0,0-3,1,10.45,10.45,0,0,0-4.44,4.83,8.5,8.5,0,0,0-.79,3.12,7.64,7.64,0,0,0,.51,3.18,7.55,7.55,0,0,0,2.05,2.9,7.71,7.71,0,0,0,3,1.79,7.79,7.79,0,0,0,3.21.25,8.58,8.58,0,0,0,3.06-1,10.42,10.42,0,0,0,2.61-2.06"/><polygon class="cls-1" points="47.87 146.75 38.94 161.5 47.75 166.83 49.93 163.22 44.65 160.03 51.4 148.88 47.87 146.75"/><polygon class="cls-1" points="61.69 154.11 57.87 152.57 51.46 168.57 61.02 172.4 62.58 168.49 56.85 166.2 61.69 154.11"/><polygon class="cls-1" points="65.07 173.61 76.16 175.93 77.03 171.8 69.97 170.33 70.5 167.77 77.41 169.21 78.23 165.26 71.33 163.82 71.77 161.7 78.76 163.17 79.63 159.04 68.6 156.74 65.07 173.61"/><path class="cls-1" d="M86.14,164.46a3.62,3.62,0,0,1,1.36-.84,4.58,4.58,0,0,1,1.62-.25,4.42,4.42,0,0,1,2.16.53A8.12,8.12,0,0,1,92.84,165l2.71-3.36a9.21,9.21,0,0,0-2.8-1.82,9.53,9.53,0,0,0-3.53-.69,8.81,8.81,0,0,0-3.37.55,7.69,7.69,0,0,0-2.68,1.69,7.89,7.89,0,0,0-1.78,2.71,10.07,10.07,0,0,0-.67,3.63,10.36,10.36,0,0,0,.55,3.69A8.45,8.45,0,0,0,83,174.29a7.67,7.67,0,0,0,2.6,1.85,8.32,8.32,0,0,0,3.29.7,9.3,9.3,0,0,0,2-.18,7.79,7.79,0,0,0,1.85-.64,7.29,7.29,0,0,0,1.61-1.1,6.22,6.22,0,0,0,1.24-1.6l-3.07-2.64a3.36,3.36,0,0,1-1.37,1.43,4.15,4.15,0,0,1-2.17.52,4.5,4.5,0,0,1-1.55-.3,3.77,3.77,0,0,1-1.31-.84,4.14,4.14,0,0,1-.89-1.44,6,6,0,0,1-.3-2.09,5.79,5.79,0,0,1,.36-2.06,3.88,3.88,0,0,1,.92-1.44"/><polygon class="cls-1" points="108.29 156.9 95.92 159.28 96.72 163.41 100.86 162.62 103.31 175.41 107.38 174.63 104.93 161.84 109.09 161.04 108.29 156.9"/><rect class="cls-1" x="117.97" y="160.6" width="6.15" height="2.75" transform="translate(-55.06 62.6) rotate(-23.8)"/><polygon class="cls-1" points="137.78 156.55 130.11 146.03 126.78 148.46 136.94 162.38 145.26 156.32 142.78 152.91 137.78 156.55"/><rect class="cls-1" x="141.49" y="137.45" width="4.12" height="17.24" transform="translate(-61.12 138.94) rotate(-43.5)"/><polygon class="cls-1" points="147.21 128.78 151.92 136.94 142.87 134.4 140.13 137.94 158.7 142.47 158.91 142.2 149.86 125.36 147.21 128.78"/><path class="cls-1" d="M159.31,121.71l-1.16,2.39-2.54-1.24,1.17-2.39a1.18,1.18,0,0,1,.78-.7,1.65,1.65,0,0,1,1.06.17,1.49,1.49,0,0,1,.77.73,1.18,1.18,0,0,1-.08,1m2.71-4.14A6.3,6.3,0,0,0,160,116a6.52,6.52,0,0,0-1.86-.6,4.54,4.54,0,0,0-1.84.07,4.31,4.31,0,0,0-1.65.84,4.84,4.84,0,0,0-1.3,1.71L150,124.72l15.5,7.56,1.8-3.71-6.4-3.12.84-1.72,7.64.59,2-4.14-8.47-.31a4,4,0,0,0-.92-2.3"/><path class="cls-1" d="M169.73,107.26l-.73,2.86-3.13-2.32Zm-12.34-1.49,15,11.81,1.05-4.15L171.55,112l1.3-5.18,2.36-.33,1.1-4.35-18.84,3.29Z"/><rect class="cls-1" x="166.03" y="86.99" width="4.12" height="17.24" transform="translate(57.42 254.19) rotate(-84.72)"/><path class="cls-1" d="M177.16,83.61a6.69,6.69,0,0,0-1.63-4.51,4.79,4.79,0,0,0-3.85-1.4,4.13,4.13,0,0,0-2.33.72,5.1,5.1,0,0,0-1.53,2c-.16.34-.34.75-.53,1.24s-.36,1-.52,1.46-.31.91-.42,1.28-.2.62-.24.73a4.28,4.28,0,0,1-.48,1,1,1,0,0,1-.78.38c-.83,0-1.27-.59-1.34-1.89a7.05,7.05,0,0,1,.05-1.2,8.89,8.89,0,0,1,.23-1.3c.1-.44.23-.87.37-1.3s.31-.83.48-1.2l-3.84-.71a11.05,11.05,0,0,0-1.3,5.79,9.43,9.43,0,0,0,.45,2.51A5.62,5.62,0,0,0,161,89a4.52,4.52,0,0,0,1.63,1.18,5,5,0,0,0,2.16.33,4.17,4.17,0,0,0,2.56-.88,5.89,5.89,0,0,0,1.58-2.16c.16-.36.32-.75.48-1.2s.31-.87.44-1.28.26-.79.36-1.11.16-.57.2-.7a3,3,0,0,1,.5-1,1,1,0,0,1,.81-.36,1.12,1.12,0,0,1,1,.45,2.91,2.91,0,0,1,.44,1.62,8.92,8.92,0,0,1,0,1.24c0,.47-.1,1-.19,1.45s-.21,1-.35,1.51a8.62,8.62,0,0,1-.54,1.38l3.83.67a8.24,8.24,0,0,0,.69-1.68,15.08,15.08,0,0,0,.42-1.77,14.66,14.66,0,0,0,.17-1.69c0-.54,0-1,0-1.42"/><path class="cls-1" d="M169.51,64.86a4.16,4.16,0,0,1,.7,1.45,4,4,0,0,1,.1,1.64,3.73,3.73,0,0,1-.57,1.45,4.31,4.31,0,0,1-1.21,1.15,6.92,6.92,0,0,1-3.75,1,4.15,4.15,0,0,1-1.6-.41,3.5,3.5,0,0,1-1.2-1,3.9,3.9,0,0,1-.71-1.46,3.81,3.81,0,0,1-.11-1.63,3.4,3.4,0,0,1,.56-1.43,4.39,4.39,0,0,1,1.19-1.16,6.67,6.67,0,0,1,3.79-1,4.39,4.39,0,0,1,1.62.41,3.37,3.37,0,0,1,1.19,1m-5.84-5.13a10.27,10.27,0,0,0-3,1.36,8.48,8.48,0,0,0-2.34,2.24,7.57,7.57,0,0,0-1.09,6.5,7.51,7.51,0,0,0,4.16,5,8.64,8.64,0,0,0,3.13.78A10.57,10.57,0,0,0,170.83,74a8.72,8.72,0,0,0,2.35-2.21,8.07,8.07,0,0,0-.5-9.65,7.67,7.67,0,0,0-2.57-1.94,8.55,8.55,0,0,0-3.14-.79,10.54,10.54,0,0,0-3.3.34"/><polygon class="cls-1" points="149.95 51.86 157.44 47.84 154.41 60.64 154.54 60.88 169.92 52.63 168.05 49.13 160.54 53.16 163.61 40.37 163.47 40.11 148.08 48.36 149.95 51.86"/><polygon class="cls-1" points="29.71 34.51 31.03 37.64 31.45 34.27 34.84 33.98 31.76 32.53 32.53 29.22 30.21 31.7 27.3 29.94 28.94 32.92 26.37 35.15 29.71 34.51"/><polygon class="cls-1" points="146.38 34.27 146.81 37.64 148.13 34.51 151.47 35.15 148.9 32.92 150.54 29.94 147.63 31.7 145.3 29.22 146.07 32.53 142.99 33.98 146.38 34.27"/></g></g></svg>