<svg xmlns="http://www.w3.org/2000/svg" viewBox="0 0 203.93 203.93"><defs><style>.cls-1{fill:#fff;}.cls-2{fill:#2b2c83;}</style></defs><g id="Calque_2" data-name="Calque 2"><g id="Calque_1-2" data-name="Calque 1"><circle class="cls-1" cx="101.96" cy="101.96" r="101.96"/><path class="cls-2" d="M112.54,142.37c.31,3.36-1.38,7,.3,9.45,5.16-.84,11.4-.61,15.61-2.4-4.39-1-9-1.72-11.26-4.8-.68-.93-.59-2.07-1.65-2.85a23.76,23.76,0,0,1-3,.6m-39.32-5.86c-1.79,2.27-5.17,2.94-6.61,5.56,3.54,4.21,6,9.46,12,11.25-.63-4.7-4.91-8.18-2.7-13.81a25.67,25.67,0,0,0-2.7-3m48.47-34.07c-7.21,16.49-14.27,32.55-21.31,48.63-.4.91-1.82,2.49-.9,3.3,1.49.27,1.75-1.77,2.1-2.55,7.86-17.36,15.6-35.07,23.42-52.23-1.85-2.07-2.42.84-3.31,2.85m-6-2.7c-.37.42-1.14.46-1.65.75.86,3.3,1.37,6.94,2.25,10.21,1.87-4.39,3.89-8.62,5.71-13.06-1.1-1.85-3.37-2.54-6.61-2.25.07,1.46.63,3,.3,4.35m-8.4-1.5a31.6,31.6,0,0,1,6.45,0c0-1-.21-1.89-.3-2.85a43.36,43.36,0,0,1-6.75-.45,11.62,11.62,0,0,0,.6,3.3m18.46-7.66c-1.31-.29-2.75.33-4.06.15a47.6,47.6,0,0,1-5.7-1.65c-2.09-.58-4.21-1.35-5.85-2-2.29,1.52-4.5,3.1-6.6,4.8,4.3,2.89,11.34.19,16.65,1.8,2.79.85,3.58,4.44,7.06,4.06,1.13-1.47,2.47-2.73,2.7-5.11-1.57.11-2.78-1.78-4.2-2.1m-16.51-9.45c1.12,1.38,1.39,3.61,2.85,4.65-.11-5.3-1.39-10.72-2.55-15.46a10.6,10.6,0,0,0-1.35-1c-.14,4.42,2.15,7.4,1,11.86M106.39,73c-.22-1.43.22-3.09-.3-4.35-.61-1.46-3.25-2.59-4.06-3.75-2,.34-4.25-.06-6.3.6s-2.92,3.92-3.75,6.3c-.36,1-.93,2-1.2,2.85-.46,1.51-.46,3.4-.9,5.11s-1.34,3-1.66,4.35c-.52,2.17-.22,4.33-.89,6-.43,1.07-1.27,1.81-1.51,2.7s0,2.49-.15,3.46c-.22,1.38-1.72,3.14-.9,4.8.6.85,1.64.59,2.7,1s1.58,1.42,2.56,1.65c1.3.31,2.58,0,3.75.45s1.85,1.46,2.85,1.65c.64.12,1.36-.21,2-.15,1.48.16,2.72,1.46,4.35,1.05,1.27-1,.47-2.85.75-4.35s1.48-2.49,1.5-4.2c0-1.32-.66-2.18-.44-3.75a9.84,9.84,0,0,1-3.16-1.5c-2.88,2.69-5.34-3-6.6-5.71a28.85,28.85,0,0,1-2.4-8.85c-.33-4.36,1.2-9.87,4.2-10.36,2.81-.46,5.66,1.9,7.21,3.45a35.7,35.7,0,0,1,3.3,4.36c0-1.11-.74-1.74-.9-2.86m27.76,5.86a23.81,23.81,0,0,1,1.8-3.76c1.12-1.54,3.51-2,4.66-3.3a6.83,6.83,0,0,0,.9-6.9c-1.94-3.5-8.81-2.89-10.81,0-.72,1-1.53,3.14-.6,4.8,1.61-.14,1.38-2,2-3,1.43-2.43,7.83-3.21,8.11.75.23,3.34-3.13,3.79-4.81,5.4s-2.7,5.11-4,8.11a84.83,84.83,0,0,0-3.6,8.55,3,3,0,0,0,1.35.75c1.91-3.62,3.43-7.65,5.1-11.4M110.44,57.11c-.29,1.2-.9,3.38.3,4.06.41-1.26,1.45-2.46,1.35-3.76-.42-.1-.91-.55-1.65-.3m-.6-3.9a12.6,12.6,0,0,0-5.85-.3c-.87.48-.66,2-1.66,2.25-.79.24-1.12-.52-2-.3-1.75,1,.14,2.81.15,4.36,0,1.39-.8,2.43-1,3.75.71.13,2-.18,2.85,0,.62.13,1.37,1.08,2.11,1.35,2.36.85,5.52-.06,5.46-1.56,0-.52-.8-1.12-1.41-1.29-1.23-.35-3.28.09-4.22-.44.45-1.26,3.12-.61,4.07-1.36.35-1.06-.08-2.89.45-3.76,1.19-1,2.72-.38,3.75,0,1.16-1.85-1-2.28-2.7-2.7m4.8,3.3c-1.62,3.73-2.29,8.42-6.45,9.61.42,1.54,2.77,2.09,3.45,3.9.41,1.09.34,2.8.75,4.35a61.42,61.42,0,0,1,1.8,12.16c4,.75,6.92,2.92,11.71,2.1,1.43-2.53,2.61-5.64,3.9-8.55S132.08,74,134,72c1.09-1.14,4.82-2.26,4.51-4.35-.19-1.23-2.82-2-4.36-.75-1.73,1.39-.83,4.07-3.15,4.5-4.16.79-3.18-5-1.8-7.2,3.38-5.38,14-3.9,14.56,2.55a7.93,7.93,0,0,1-3.45,7.5c-.76.52-1.94.66-2.7,1.5a16.61,16.61,0,0,0-1.81,3.61c-1.68,3.85-3,7.21-5,11.1,2.55,3-.63,7.07-2.4,9-.56.1-.89.41-1.65.3-2.19,4.69-4.45,10-6.75,15.16-1.21,2.69-2.25,3.84-2.11,7.2a178.28,178.28,0,0,1-.45,18.46c.76,3.08,3.25,5.07,6.76,6,2.23.6,6,.44,6.3,2.55.22,1.77-1.78,2.68-3.45,3-4.76.9-10.07,1.18-15.16,1.65-2.63-1.88-1.71-7.26-1.2-10.81a5.13,5.13,0,0,1-1.95-2.7c-1.87,3.41-3.75,8.07-5.71,12.46-.59,1.34-1.32,3.24-2.55,3.45a3.47,3.47,0,0,1-3-1.2c-.68-1.43,1-4.26,1.65-5.7,1.7-3.78,2.91-6.72,4.65-10.66.7-1.56,2.33-3.9,2.41-5.25s-1-3.36-1.35-4.5c-1.3-4.73-1.77-9.53-3-14.26-2,3.48-3.17,6.94-5.7,9.75-2.67,3-6.24,5.3-9.46,7.81s-6.1,5.36-9.15,8c-1.13,3.94.59,5.75,1.8,8.71.78,1.91,2.56,6.11-.3,6.6-2,.35-5.12-1.86-6.3-2.85a41.73,41.73,0,0,1-4.36-5.1c-1.16-1.44-4-3.72-4-5.4-.09-3.28,6.36-4.58,7.66-7.21.44-2.84,2.61-5.69,4.2-8.25A37.5,37.5,0,0,1,85.67,116a47.9,47.9,0,0,1,1.8-11.26c-.81-1.12-3.19-1-4.2-2.4-1.52-2.19.13-4.46.45-6.3.08-.44-.09-1.56,0-2.4.17-1.54,1.4-2.92,2-4.66s.16-3.76.75-5.7c.27-.85.92-1.57,1.2-2.4.77-2.21.67-4.48,1.21-6.46.26-1,.85-2.05,1.2-3,1.33-3.71,2.3-8,7.2-8,.53-1.36,1.41-2.65,1.35-4.2,0-1.15-1.13-2.1-.75-3.46-3.53-5.12.81-9.51,5.71-10,3.52-.4,8,.41,10,2.1,1,.85,1.91,2.14,3,3.15,1.34,1.24,2.4,2.41,2.25,3.75-.19,1.78-2.16,2.49-4.2,1.8"/><path class="cls-2" d="M103.68,55.91a9.2,9.2,0,0,1,3.91.6c.17,0,.25-.92,0-1.41-.73-1.12-3.93-1.26-3.86.81"/><path class="cls-2" d="M105.87,62.39c.11,1,1.55,2.33,3.14.35,0-.26-2.57-.8-3.14-.35"/><polygon class="cls-2" points="68.25 40.36 65.76 36.65 59.42 40.92 57.87 38.62 64.07 34.45 61.69 30.9 55.48 35.08 54.2 33.17 60.48 28.95 57.99 25.24 48.08 31.91 58.29 47.07 68.25 40.36"/><rect class="cls-2" x="67.91" y="28.5" width="6.52" height="3.61" transform="translate(-6.18 30.72) rotate(-23.37)"/><path class="cls-2" d="M78.9,24.69A6.23,6.23,0,0,0,81.45,26a12.39,12.39,0,0,0,1.34.29l1.42.24,1.22.16.77.09a3.43,3.43,0,0,1,1.14.34,1.15,1.15,0,0,1,.53.78A1.2,1.2,0,0,1,87.56,29a3,3,0,0,1-1.6.75,10.25,10.25,0,0,1-1.31.19A15.37,15.37,0,0,1,83.1,30a15,15,0,0,1-1.63-.11,8.58,8.58,0,0,1-1.54-.3l0,4.11a9,9,0,0,0,1.89.43,18,18,0,0,0,1.92.11,12.91,12.91,0,0,0,1.79-.12c.57-.08,1.07-.16,1.49-.26a7.12,7.12,0,0,0,4.42-2.51,5.06,5.06,0,0,0,.77-4.27A4.45,4.45,0,0,0,91,24.75a5.43,5.43,0,0,0-2.33-1.24c-.39-.11-.85-.22-1.4-.33l-1.62-.29-1.42-.21-.79-.11a4.15,4.15,0,0,1-1.09-.33,1.06,1.06,0,0,1-.55-.75c-.19-.86.4-1.43,1.75-1.74a9.36,9.36,0,0,1,1.26-.17,12.94,12.94,0,0,1,1.39,0c.48,0,1,.09,1.43.16A10.18,10.18,0,0,1,89,20l.06-4.15a12.17,12.17,0,0,0-3.19-.59,11.86,11.86,0,0,0-3.1.28,9.7,9.7,0,0,0-2.55.92A5.91,5.91,0,0,0,78.42,18a4.67,4.67,0,0,0-.93,1.91,5.36,5.36,0,0,0,0,2.32,4.48,4.48,0,0,0,1.38,2.51"/><polygon class="cls-2" points="98.07 13.54 97.49 31.8 101.86 31.94 102.09 24.71 106.86 24.86 106.64 32.09 110.98 32.23 111.56 13.97 107.22 13.83 107 20.59 102.23 20.44 102.44 13.68 98.07 13.54"/><path class="cls-2" d="M130.05,27.88a6.47,6.47,0,0,1-.93,1.88A4.45,4.45,0,0,1,127.83,31a3.56,3.56,0,0,1-1.54.51,4.31,4.31,0,0,1-1.69-.2,4.13,4.13,0,0,1-1.52-.86,3.63,3.63,0,0,1-1-1.33,4.42,4.42,0,0,1-.33-1.74,6.6,6.6,0,0,1,.35-2.06,6.38,6.38,0,0,1,.9-1.85,4.52,4.52,0,0,1,1.28-1.2,3.66,3.66,0,0,1,1.54-.52,4.44,4.44,0,0,1,3.23,1,3.52,3.52,0,0,1,1,1.32,4.52,4.52,0,0,1,.35,1.73,6.39,6.39,0,0,1-.34,2.07m2.57,4.47a10.68,10.68,0,0,0,1.59-3.14,10.87,10.87,0,0,0,.53-3.49,9.07,9.07,0,0,0-.66-3.37,8.13,8.13,0,0,0-1.92-2.82,8.86,8.86,0,0,0-7-2.23A8.23,8.23,0,0,0,122,18.47a9.1,9.1,0,0,0-2.49,2.35,11.11,11.11,0,0,0-2.13,6.62A9,9,0,0,0,118,30.8a8.56,8.56,0,0,0,8.89,5.08,8.23,8.23,0,0,0,3.2-1.18,9,9,0,0,0,2.5-2.35"/><path class="cls-2" d="M146.27,30.86l2.3,1.49a1.22,1.22,0,0,1,.63.92,1.72,1.72,0,0,1-.32,1.11,1.9,1.9,0,0,1-.89.76,1.21,1.21,0,0,1-1.11-.18l-2.3-1.5Zm-1.63,7.6a5.71,5.71,0,0,0,2.23.89,4.63,4.63,0,0,0,2.1-.15,5.49,5.49,0,0,0,1.87-1,8,8,0,0,0,1.54-1.77,7.23,7.23,0,0,0,1-2.15,5.15,5.15,0,0,0,.14-2.09,4.78,4.78,0,0,0-.76-1.92A6.06,6.06,0,0,0,151,28.62l-6-3.89-10,15.32,3.67,2.38L142.32,37Z"/><path class="cls-2" d="M24.65,65.51l3.8-1.38a3.28,3.28,0,0,1-.57-1.9,4.07,4.07,0,0,1,.61-2.15,4.56,4.56,0,0,1,1-1.21,3.8,3.8,0,0,1,1.38-.72,3.9,3.9,0,0,1,1.68-.08,6.69,6.69,0,0,1,3.6,2.09,3.76,3.76,0,0,1,.8,1.51A3.7,3.7,0,0,1,37,63.26a5,5,0,0,1-.57,1.54,4.42,4.42,0,0,1-1.52,1.62,8.81,8.81,0,0,1-1.75.81l1.6,4a9,9,0,0,0,3-1.56,9.41,9.41,0,0,0,2.34-2.74,8.8,8.8,0,0,0,1.17-3.21,7.58,7.58,0,0,0-1.66-6,10,10,0,0,0-2.83-2.37A10.54,10.54,0,0,0,33.26,54a8.16,8.16,0,0,0-3.31.07,7.65,7.65,0,0,0-2.89,1.35A8.23,8.23,0,0,0,24.85,58,9.58,9.58,0,0,0,24,59.78a7.46,7.46,0,0,0-.35,1.92,7.06,7.06,0,0,0,.18,1.94,5.85,5.85,0,0,0,.79,1.87"/><polygon class="cls-2" points="22.65 73.37 34.94 77.68 36.3 73.79 20.03 68.09 16.63 77.8 20.6 79.2 22.65 73.37"/><rect class="cls-2" x="21.79" y="76.69" width="4.12" height="17.24" transform="translate(-64.53 91.23) rotate(-78.21)"/><path class="cls-2" d="M15.12,103.73a6.09,6.09,0,0,0,1.57,1.3l2.74-3A3.4,3.4,0,0,1,18,100.63a4.15,4.15,0,0,1-.45-2.19,4.73,4.73,0,0,1,.35-1.54,3.79,3.79,0,0,1,.89-1.28,3.92,3.92,0,0,1,1.46-.84,5.69,5.69,0,0,1,2.1-.23,5.87,5.87,0,0,1,2.05.42,3.87,3.87,0,0,1,1.41,1,3.66,3.66,0,0,1,.79,1.38,4.65,4.65,0,0,1,.2,1.63,4.44,4.44,0,0,1-.6,2.14,8.4,8.4,0,0,1-1.18,1.52l3.27,2.82a9,9,0,0,0,1.9-2.74,9.42,9.42,0,0,0,.82-3.51,9.08,9.08,0,0,0-.44-3.38,7.63,7.63,0,0,0-4.26-4.6,10,10,0,0,0-3.6-.8,10.54,10.54,0,0,0-3.71.44,8.51,8.51,0,0,0-2.91,1.58A7.71,7.71,0,0,0,14.19,95a8.2,8.2,0,0,0-.8,3.26,8.77,8.77,0,0,0,.11,2,7.39,7.39,0,0,0,.58,1.87,7.22,7.22,0,0,0,1,1.64"/><polygon class="cls-2" points="13.68 109.66 14.33 113.73 20.01 112.81 22.85 114.48 15.14 118.73 15.88 123.31 26.91 116.86 32.85 120.33 32.14 115.91 25.34 111.95 31.35 110.99 30.7 106.92 13.68 109.66"/><path class="cls-2" d="M27.28,131.71a4.77,4.77,0,0,1-1-.56,3.68,3.68,0,0,1,.54-.69,2,2,0,0,1,.64-.41,1.1,1.1,0,0,1,.85-.08.94.94,0,0,1,.49.54.93.93,0,0,1,0,.67,1,1,0,0,1-.58.48,1.33,1.33,0,0,1-1,.05m-4.6,2.8a1.42,1.42,0,0,1-.56-.36,2.12,2.12,0,0,1-.39-.63,1.5,1.5,0,0,1-.11-1.09,1.3,1.3,0,0,1,.78-.67,1.4,1.4,0,0,1,.8-.12,2.36,2.36,0,0,1,.73.29Zm6.62-1A3,3,0,0,0,31,132a2.82,2.82,0,0,0-.1-2.28A3,3,0,0,0,29.37,128a3.09,3.09,0,0,0-2.35.13,3.61,3.61,0,0,0-1.26.81,6.16,6.16,0,0,0-.92,1.23,5,5,0,0,0-1.71-.69,3.44,3.44,0,0,0-2,.28,3.41,3.41,0,0,0-1.25.8,2.59,2.59,0,0,0-.62,1.07,3,3,0,0,0-.08,1.27,5.41,5.41,0,0,0,.37,1.36,4.52,4.52,0,0,0,1,1.59,3.39,3.39,0,0,0,1.15.79l-.54,1.11,1,2.46,1.57-3.42,3.39-.2-.87-2.13-1.51.11.74-1.6a8.42,8.42,0,0,0,.93.49,4,4,0,0,0,.91.29,3.07,3.07,0,0,0,1,0,3.64,3.64,0,0,0,1-.27"/><path class="cls-2" d="M40.62,145.18a4.3,4.3,0,0,1,.82,2.06,8.28,8.28,0,0,1,0,1.93l4.31.25a8.94,8.94,0,0,0-.15-3.33,9.52,9.52,0,0,0-1.48-3.28,9.09,9.09,0,0,0-2.41-2.42,7.78,7.78,0,0,0-2.93-1.2,7.93,7.93,0,0,0-3.24.13,10,10,0,0,0-3.35,1.56,10.24,10.24,0,0,0-2.68,2.6,8.47,8.47,0,0,0-1.35,3,7.79,7.79,0,0,0,0,3.19,8.44,8.44,0,0,0,1.34,3.09,9.47,9.47,0,0,0,1.31,1.51,7.07,7.07,0,0,0,1.59,1.13,6.8,6.8,0,0,0,1.83.67,6.17,6.17,0,0,0,2,.08l.37-4a3.37,3.37,0,0,1-2-.29A4.14,4.14,0,0,1,33,150.38,4.77,4.77,0,0,1,32.3,149a3.86,3.86,0,0,1-.07-1.55,3.94,3.94,0,0,1,.65-1.56,6.64,6.64,0,0,1,3.42-2.37,4,4,0,0,1,1.71-.08,3.7,3.7,0,0,1,1.46.61,4.61,4.61,0,0,1,1.15,1.18"/><path class="cls-2" d="M52.06,161.58A5.94,5.94,0,0,1,51,163.22a5.8,5.8,0,0,1-1.54,1.25,4.26,4.26,0,0,1-1.58.52,3.41,3.41,0,0,1-1.52-.17,4.19,4.19,0,0,1-1.37-.84,3.92,3.92,0,0,1-1-1.33,3.38,3.38,0,0,1-.3-1.53,4.19,4.19,0,0,1,.4-1.62,6.17,6.17,0,0,1,1.11-1.62,5.76,5.76,0,0,1,1.51-1.23,4.19,4.19,0,0,1,1.56-.53,3.43,3.43,0,0,1,1.53.17,4,4,0,0,1,1.4.85,3.85,3.85,0,0,1,1,1.31,3.55,3.55,0,0,1,.3,1.51,4.46,4.46,0,0,1-.39,1.62M54,166a10.5,10.5,0,0,0,1.84-2.78,8.65,8.65,0,0,0,.76-3.15,7.77,7.77,0,0,0-.53-3.18A7.8,7.8,0,0,0,47.79,152a8.66,8.66,0,0,0-3.06,1,10.45,10.45,0,0,0-2.61,2.07,10.69,10.69,0,0,0-1.83,2.76A8.76,8.76,0,0,0,39.5,161a7.62,7.62,0,0,0,.51,3.17,7.77,7.77,0,0,0,2.05,2.9,7.52,7.52,0,0,0,6.26,2,8.63,8.63,0,0,0,3.07-1A10.32,10.32,0,0,0,54,166"/><polygon class="cls-2" points="61.24 160.29 52.32 175.04 61.13 180.37 63.31 176.76 58.03 173.57 64.77 162.43 61.24 160.29"/><polygon class="cls-2" points="75.07 167.65 71.24 166.12 64.83 182.12 74.39 185.95 75.96 182.03 70.23 179.74 75.07 167.65"/><polygon class="cls-2" points="78.45 187.15 89.54 189.47 90.4 185.35 83.34 183.87 83.88 181.31 90.78 182.76 91.61 178.81 84.7 177.37 85.15 175.25 92.14 176.71 93 172.59 81.97 170.28 78.45 187.15"/><path class="cls-2" d="M99.52,178a3.79,3.79,0,0,1,1.35-.84,4.92,4.92,0,0,1,1.63-.25,4.42,4.42,0,0,1,2.16.53,8.48,8.48,0,0,1,1.55,1.13l2.72-3.36a9,9,0,0,0-2.8-1.81,9.42,9.42,0,0,0-3.54-.7,9,9,0,0,0-3.37.55,7.64,7.64,0,0,0-2.67,1.69,7.84,7.84,0,0,0-1.78,2.71,10.07,10.07,0,0,0-.68,3.63,10.59,10.59,0,0,0,.56,3.69,8.35,8.35,0,0,0,1.68,2.86,7.79,7.79,0,0,0,2.59,1.86,8.53,8.53,0,0,0,3.29.69,9.39,9.39,0,0,0,2-.18,7.49,7.49,0,0,0,1.85-.63,7.34,7.34,0,0,0,1.6-1.1,6.09,6.09,0,0,0,1.25-1.61l-3.07-2.64a3.33,3.33,0,0,1-1.38,1.43,4.13,4.13,0,0,1-2.17.52,4.5,4.5,0,0,1-1.55-.3,3.68,3.68,0,0,1-1.3-.84,3.82,3.82,0,0,1-.89-1.43,5.56,5.56,0,0,1-.3-2.09,6,6,0,0,1,.35-2.07,4.07,4.07,0,0,1,.93-1.44"/><polygon class="cls-2" points="121.67 170.45 109.3 172.82 110.09 176.96 114.23 176.16 116.68 188.95 120.75 188.17 118.3 175.38 122.46 174.59 121.67 170.45"/><rect class="cls-2" x="131.34" y="174.14" width="6.15" height="2.75" transform="translate(-59.39 69.15) rotate(-23.8)"/><polygon class="cls-2" points="151.16 170.09 143.49 159.57 140.16 162 150.31 175.93 158.63 169.86 156.15 166.46 151.16 170.09"/><rect class="cls-2" x="154.86" y="150.99" width="4.12" height="17.24" transform="translate(-66.77 151.86) rotate(-43.5)"/><polygon class="cls-2" points="160.59 142.32 165.3 150.49 156.25 147.94 153.51 151.49 172.08 156.01 172.28 155.74 163.24 138.9 160.59 142.32"/><path class="cls-2" d="M172.69,135.25l-1.17,2.39L169,136.41l1.17-2.39a1.14,1.14,0,0,1,.78-.7,1.58,1.58,0,0,1,1.06.16,1.61,1.61,0,0,1,.77.73,1.18,1.18,0,0,1-.08,1m2.7-4.13a6.06,6.06,0,0,0-2.06-1.6,6.8,6.8,0,0,0-1.87-.6,4.73,4.73,0,0,0-1.84.07,4.31,4.31,0,0,0-1.65.84,4.82,4.82,0,0,0-1.29,1.71l-3.28,6.73,15.49,7.55,1.81-3.71L174.3,139l.84-1.72,7.63.59,2-4.13-8.47-.32a3.86,3.86,0,0,0-.93-2.29"/><path class="cls-2" d="M183.1,120.8l-.72,2.86-3.13-2.32Zm-12.34-1.48,15,11.81,1-4.16-1.92-1.41,1.31-5.18,2.36-.33,1.1-4.35L170.85,119Z"/><rect class="cls-2" x="179.4" y="100.54" width="4.12" height="17.24" transform="translate(56.08 279.81) rotate(-84.72)"/><path class="cls-2" d="M190.53,97.15a6.71,6.71,0,0,0-1.62-4.51,4.8,4.8,0,0,0-3.85-1.4,4.33,4.33,0,0,0-2.34.72,5.16,5.16,0,0,0-1.52,2c-.17.34-.34.75-.53,1.24s-.36,1-.52,1.46-.31.91-.43,1.29-.19.61-.24.72a3.57,3.57,0,0,1-.48,1,1,1,0,0,1-.78.39c-.82,0-1.27-.6-1.33-1.9a7,7,0,0,1,0-1.2,10.79,10.79,0,0,1,.23-1.3c.11-.44.23-.87.38-1.3a9.38,9.38,0,0,1,.48-1.2l-3.85-.71a11.44,11.44,0,0,0-1,2.87,11.09,11.09,0,0,0-.24,2.92,8.83,8.83,0,0,0,.45,2.52,5.39,5.39,0,0,0,1.06,1.9,4.27,4.27,0,0,0,1.62,1.17,5.12,5.12,0,0,0,2.16.34,4.27,4.27,0,0,0,2.57-.89,5.87,5.87,0,0,0,1.57-2.16q.24-.52.48-1.2c.16-.44.31-.87.45-1.28s.25-.78.35-1.11.17-.56.2-.7a3.26,3.26,0,0,1,.51-1,1.1,1.1,0,0,1,.8-.36,1.13,1.13,0,0,1,1,.46,2.85,2.85,0,0,1,.43,1.61,10.57,10.57,0,0,1,0,1.24c0,.47-.11,1-.19,1.46a13.61,13.61,0,0,1-.36,1.5,7.94,7.94,0,0,1-.53,1.38l3.82.67A7.83,7.83,0,0,0,190,102a16.15,16.15,0,0,0,.41-1.77,12.62,12.62,0,0,0,.18-1.69c0-.54,0-1,0-1.42"/><path class="cls-2" d="M182.88,78.41a4.17,4.17,0,0,1,.8,3.08,3.45,3.45,0,0,1-.57,1.45,4.05,4.05,0,0,1-1.21,1.15,6.92,6.92,0,0,1-3.74,1,4.28,4.28,0,0,1-1.6-.4,3.5,3.5,0,0,1-1.2-1,3.89,3.89,0,0,1-.72-1.47,4.15,4.15,0,0,1-.11-1.63,3.6,3.6,0,0,1,.56-1.43,4.44,4.44,0,0,1,1.2-1.16,6.21,6.21,0,0,1,1.82-.79,6.08,6.08,0,0,1,2-.22,4.29,4.29,0,0,1,1.61.41,3.21,3.21,0,0,1,1.19,1m-5.83-5.14A10.32,10.32,0,0,0,174,74.63a8.73,8.73,0,0,0-2.33,2.24,7.81,7.81,0,0,0-1.27,3,7.65,7.65,0,0,0,.18,3.53,7.56,7.56,0,0,0,1.6,3.13,7.7,7.7,0,0,0,2.56,1.93,8.58,8.58,0,0,0,3.13.77,10.62,10.62,0,0,0,6.34-1.68,8.87,8.87,0,0,0,2.35-2.21,7.59,7.59,0,0,0,1.27-3,7.71,7.71,0,0,0-.16-3.55,7.54,7.54,0,0,0-4.18-5.09,8.54,8.54,0,0,0-3.14-.78,10.22,10.22,0,0,0-3.3.33"/><polygon class="cls-2" points="163.33 65.4 170.82 61.39 167.79 74.19 167.91 74.42 183.3 66.17 181.43 62.67 173.92 66.7 176.98 53.91 176.84 53.65 161.46 61.91 163.33 65.4"/><polygon class="cls-2" points="43.08 48.05 44.41 51.19 44.83 47.81 48.22 47.52 45.14 46.08 45.91 42.76 43.58 45.24 40.67 43.49 42.31 46.47 39.74 48.69 43.08 48.05"/><polygon class="cls-2" points="159.76 47.81 160.18 51.19 161.51 48.05 164.84 48.69 162.27 46.47 163.92 43.49 161 45.24 158.68 42.76 159.45 46.08 156.37 47.52 159.76 47.81"/></g></g></svg>